<svg xmlns="http://www.w3.org/2000/svg" width="1024" height="1024" viewBox="0 0 1024 1024" version="1.1">
    <path
        d="M 793.750 221.656 C 797.046 222.364, 796.494 223.812, 792.750 224.277 C 789.611 224.666, 789.631 224.685, 793.323 224.840 C 796.470 224.972, 797.088 224.690, 796.813 223.250 C 796.613 222.201, 795.482 221.434, 793.990 221.336 C 791.782 221.191, 791.755 221.227, 793.750 221.656 M 305.345 223.543 C 305.019 224.392, 305.034 225.367, 305.376 225.710 C 305.719 226.053, 306 225.608, 306 224.721 C 306 223.518, 307.203 223.015, 310.750 222.735 L 315.500 222.360 310.719 222.180 C 307.212 222.048, 305.779 222.411, 305.345 223.543 M 430 223.333 C 430 224.564, 429.106 225, 426.583 225 C 424.704 225, 422.938 224.539, 422.658 223.975 C 422.379 223.411, 422.264 223.524, 422.402 224.225 C 422.796 226.217, 429.883 226.469, 430.632 224.518 C 430.970 223.636, 430.966 222.633, 430.624 222.290 C 430.281 221.947, 430 222.417, 430 223.333 M 450.116 223.750 C 450.012 225.773, 450.429 225.983, 454.250 225.832 L 458.500 225.664 454.812 225.275 C 452.413 225.022, 450.969 224.295, 450.678 223.193 C 450.361 221.988, 450.199 222.148, 450.116 223.750 M 541.975 222.658 C 542.539 222.938, 543 223.579, 543 224.083 C 543 225.483, 536.237 225.175, 535.662 223.750 C 535.369 223.024, 535.125 223.258, 535.079 224.307 C 535.013 225.825, 535.682 226.066, 539.250 225.807 C 542.105 225.601, 543.500 225.035, 543.500 224.083 C 543.500 223.304, 542.926 222.550, 542.225 222.408 C 541.524 222.266, 541.411 222.379, 541.975 222.658 M 585.250 222.691 C 587.313 222.927, 589 223.516, 589 224 C 589 224.484, 587.313 225.073, 585.250 225.309 L 581.500 225.738 585.500 225.619 C 588.336 225.535, 589.500 225.063, 589.500 224 C 589.500 222.937, 588.336 222.465, 585.500 222.381 L 581.500 222.262 585.250 222.691 M 593.446 223.087 C 592.283 224.969, 594.590 226.151, 598.618 225.736 L 602.500 225.336 598.250 225.168 C 595.913 225.076, 594 224.576, 594 224.057 C 594 223.539, 595.913 222.943, 598.250 222.732 L 602.500 222.349 598.309 222.175 C 596.004 222.079, 593.816 222.489, 593.446 223.087 M 614.250 222.691 C 616.313 222.927, 618 223.516, 618 224 C 618 224.484, 616.313 225.056, 614.250 225.272 L 610.500 225.664 614.823 225.832 C 618.449 225.973, 619.093 225.717, 618.815 224.250 C 618.570 222.957, 617.441 222.469, 614.492 222.381 L 610.500 222.262 614.250 222.691 M 626.250 222.691 C 628.313 222.927, 630 223.516, 630 224 C 630 224.484, 628.313 225.073, 626.250 225.309 L 622.500 225.738 626.500 225.619 C 629.336 225.535, 630.500 225.063, 630.500 224 C 630.500 222.937, 629.336 222.465, 626.500 222.381 L 622.500 222.262 626.250 222.691 M 714.480 223.032 C 713.339 224.878, 715.489 226.170, 719.123 225.823 C 723.908 225.365, 723.694 222.600, 718.843 222.195 C 716.831 222.028, 714.868 222.404, 714.480 223.032 M 730.993 222.709 C 736.264 223.243, 736.121 224.775, 730.750 225.302 L 726.500 225.720 731 225.610 C 734.284 225.530, 735.500 225.095, 735.500 224 C 735.500 222.917, 734.317 222.473, 731.243 222.402 L 726.985 222.304 730.993 222.709 M 747.993 222.709 C 753.264 223.243, 753.121 224.775, 747.750 225.302 L 743.500 225.720 748 225.610 C 751.284 225.530, 752.500 225.095, 752.500 224 C 752.500 222.917, 751.317 222.473, 748.243 222.402 L 743.985 222.304 747.993 222.709 M 756.178 223.688 C 756.638 226.075, 764.500 226.370, 764.500 224 C 764.500 222.945, 763.213 222.407, 760.165 222.188 C 756.432 221.920, 755.878 222.128, 756.178 223.688 M 715 224 C 715 224.550, 716.575 225, 718.500 225 C 720.425 225, 722 224.550, 722 224 C 722 223.450, 720.425 223, 718.500 223 C 716.575 223, 715 223.450, 715 224 M 757 224 C 757 224.550, 758.575 225, 760.500 225 C 762.425 225, 764 224.550, 764 224 C 764 223.450, 762.425 223, 760.500 223 C 758.575 223, 757 223.450, 757 224 M 428.250 276.750 C 479.263 276.893, 562.738 276.893, 613.750 276.750 C 664.763 276.607, 623.025 276.490, 521 276.490 C 418.975 276.490, 377.238 276.607, 428.250 276.750 M 334.472 345 C 334.472 382.125, 334.597 397.313, 334.750 378.750 C 334.902 360.188, 334.902 329.813, 334.750 311.250 C 334.597 292.688, 334.472 307.875, 334.472 345 M 338.490 470.500 C 338.490 575.550, 338.607 618.673, 338.750 566.330 C 338.893 513.986, 338.893 428.036, 338.750 375.330 C 338.607 322.623, 338.490 365.450, 338.490 470.500 M 521.250 280.750 L 703 281.005 703 536.464 L 703 791.922 694.497 792.273 L 685.995 792.624 694.747 792.562 L 703.500 792.500 703.752 536.250 L 704.004 280 521.752 280.247 L 339.500 280.495 521.250 280.750 M 839.189 287.177 L 839.378 293.500 839.739 287.750 C 840.190 280.559, 841.763 280.251, 842.293 287.250 L 842.691 292.500 842.595 287.009 C 842.519 282.620, 842.149 281.452, 840.750 281.186 C 839.217 280.895, 839.023 281.639, 839.189 287.177 M 839.434 301.312 C 838.339 304.165, 839.419 310.500, 841 310.500 C 842.130 310.500, 842.500 309.287, 842.500 305.583 C 842.500 300.741, 840.645 298.156, 839.434 301.312 M 840 305.500 C 840 307.975, 840.450 310, 841 310 C 841.550 310, 842 307.975, 842 305.500 C 842 303.025, 841.550 301, 841 301 C 840.450 301, 840 303.025, 840 305.500 M 430.824 322.750 C 452.453 322.900, 487.553 322.900, 508.824 322.750 C 530.096 322.599, 512.400 322.476, 469.500 322.476 C 426.600 322.476, 409.196 322.599, 430.824 322.750 M 246.402 325.395 C 246.108 326.162, 246.046 328.524, 246.265 330.645 C 246.651 334.373, 246.669 334.346, 246.832 329.833 C 246.928 327.177, 247.539 324.949, 248.250 324.662 C 249.229 324.267, 249.222 324.141, 248.219 324.079 C 247.514 324.036, 246.696 324.628, 246.402 325.395 M 545.453 337.748 L 545.500 350.500 596 350.514 L 646.500 350.527 596.280 350.255 L 546.060 349.982 545.733 337.489 L 545.407 324.997 545.453 337.748 M 389.385 338 C 389.385 344.875, 389.545 347.688, 389.740 344.250 C 389.936 340.813, 389.936 335.188, 389.740 331.750 C 389.545 328.313, 389.385 331.125, 389.385 338 M 651.310 343.500 C 651.315 346.800, 651.502 348.029, 651.725 346.232 C 651.947 344.435, 651.943 341.735, 651.715 340.232 C 651.486 338.729, 651.304 340.200, 651.310 343.500 M 246.406 341.386 C 245.451 343.874, 246.451 351.335, 247.775 351.597 C 248.476 351.736, 248.589 351.621, 248.025 351.342 C 246.534 350.602, 246.730 341.275, 248.250 340.662 C 249.229 340.267, 249.222 340.141, 248.219 340.079 C 247.514 340.036, 246.698 340.624, 246.406 341.386 M 838.402 364 C 838.402 372.525, 838.556 376.012, 838.743 371.750 C 838.931 367.488, 838.931 360.512, 838.743 356.250 C 838.556 351.988, 838.402 355.475, 838.402 364 M 246.400 362.921 C 246.472 366.833, 246.918 368.456, 248 368.748 C 249.042 369.029, 249.138 368.894, 248.314 368.307 C 247.662 367.842, 246.942 365.220, 246.714 362.481 L 246.300 357.500 246.400 362.921 M 246.400 379.921 C 246.472 383.833, 246.918 385.456, 248 385.748 C 249.042 386.029, 249.138 385.894, 248.314 385.307 C 247.662 384.842, 246.942 382.220, 246.714 379.481 L 246.300 374.500 246.400 379.921 M 842.168 393.167 C 842.072 395.823, 841.461 398.051, 840.750 398.338 C 839.771 398.733, 839.778 398.859, 840.781 398.921 C 842.563 399.031, 843.203 396.880, 842.735 392.355 C 842.349 388.627, 842.331 388.654, 842.168 393.167 M 246.320 396 C 246.320 399.575, 246.502 401.038, 246.723 399.250 C 246.945 397.462, 246.945 394.538, 246.723 392.750 C 246.502 390.962, 246.320 392.425, 246.320 396 M 334.450 451 C 334.450 469.975, 334.584 477.738, 334.748 468.250 C 334.913 458.762, 334.913 443.238, 334.748 433.750 C 334.584 424.262, 334.450 432.025, 334.450 451 M 840.200 423.621 C 841.442 423.991, 842.006 425.524, 842.295 429.314 L 842.691 434.500 842.595 429.009 C 842.513 424.289, 842.219 423.490, 840.500 423.317 C 839.037 423.169, 838.957 423.251, 840.200 423.621 M 513.824 442.750 C 536.003 442.900, 572.003 442.900, 593.824 442.750 C 615.646 442.599, 597.500 442.476, 553.500 442.477 C 509.500 442.477, 491.646 442.600, 513.824 442.750 M 842.175 464.677 C 842.040 468.674, 841.601 469.958, 840.250 470.311 C 838.610 470.739, 838.612 470.775, 840.281 470.884 C 842.590 471.034, 843.217 469.244, 842.738 463.864 L 842.349 459.500 842.175 464.677 M 842.320 481 C 842.320 484.575, 842.502 486.038, 842.723 484.250 C 842.945 482.462, 842.945 479.538, 842.723 477.750 C 842.502 475.962, 842.320 477.425, 842.320 481 M 301.557 490.352 C 299.334 492.575, 298.611 494.446, 296.280 504 L 295.427 507.500 276.675 507.772 L 257.924 508.044 258.212 541.272 L 258.500 574.500 262.787 584.086 C 272.209 605.154, 288.660 626.432, 306.500 640.624 C 316.748 648.776, 331.286 658, 333.887 658 C 334.739 658, 334.963 636.343, 334.766 573.250 L 334.500 488.500 319.231 488.224 C 304.265 487.953, 303.914 487.996, 301.557 490.352 M 253.779 526.098 C 253.625 542.651, 253.831 556.714, 254.235 557.348 C 254.639 557.981, 254.976 544.438, 254.985 527.250 C 254.993 510.063, 254.788 496, 254.529 496 C 254.269 496, 253.932 509.544, 253.779 526.098 M 293.079 501.727 C 293.001 503.931, 292.820 503.957, 275.250 504.252 L 257.500 504.549 275.281 504.775 C 290.132 504.963, 293.156 504.758, 293.626 503.533 C 293.935 502.726, 293.957 501.489, 293.673 500.783 C 293.390 500.077, 293.122 500.502, 293.079 501.727 M 424.434 537.500 C 424.433 551.250, 424.574 557.014, 424.747 550.308 C 424.919 543.603, 424.920 532.353, 424.748 525.308 C 424.576 518.264, 424.434 523.750, 424.434 537.500 M 470.989 565.747 L 551.977 566.012 552.256 605.756 L 552.534 645.500 552.517 605.500 L 552.500 565.500 471.250 565.491 L 390 565.482 470.989 565.747 M 258.010 630.750 L 258 675 296.469 675 L 334.938 675 334.592 670.603 C 334.146 664.939, 333.986 664.725, 327.781 661.481 C 300.869 647.409, 272.839 618.320, 260.348 591.500 L 258.020 586.500 258.010 630.750 M 395.344 617 L 395.406 635.500 395.727 619.250 L 396.048 603 405.274 602.942 C 410.348 602.911, 416.300 602.512, 418.500 602.057 C 421.459 601.445, 419.073 601.200, 409.333 601.115 C 399.789 601.032, 396.045 600.656, 395.724 599.750 C 395.481 599.063, 395.310 606.825, 395.344 617 M 734.701 627.632 C 734.316 628.018, 734 631.161, 734 634.617 L 734 640.900 728.329 641.200 C 724.731 641.390, 722.565 641.966, 722.404 642.775 C 722.264 643.476, 722.379 643.589, 722.658 643.025 C 722.938 642.461, 725.829 642, 729.083 642 L 735 642 735 635 C 735 629.444, 735.310 628, 736.500 628 C 737.690 628, 738 629.444, 738 635 L 738 642 743.750 641.815 L 749.500 641.630 744.295 641.264 L 739.089 640.899 738.795 634.210 C 738.571 629.123, 738.129 627.450, 736.951 627.226 C 736.099 627.064, 735.087 627.246, 734.701 627.632 M 444.750 629.732 C 447.087 629.943, 450.913 629.943, 453.250 629.732 C 455.587 629.522, 453.675 629.349, 449 629.349 C 444.325 629.349, 442.413 629.522, 444.750 629.732 M 470.776 629.733 C 473.128 629.945, 476.728 629.942, 478.776 629.727 C 480.824 629.512, 478.900 629.339, 474.500 629.343 C 470.100 629.346, 468.424 629.522, 470.776 629.733 M 496 629.617 C 501.871 630.363, 509.777 630.442, 509.348 629.750 C 509.092 629.337, 505.421 629.067, 501.191 629.150 C 496.961 629.232, 494.625 629.443, 496 629.617 M 519.652 629.750 C 519.396 630.163, 521.732 630.373, 524.843 630.217 C 534.610 629.730, 535.788 629.305, 527.809 629.150 C 523.579 629.067, 519.908 629.337, 519.652 629.750 M 750 643.283 C 750 644.550, 748.755 644.965, 744.250 645.200 L 738.500 645.500 738.432 652 L 738.363 658.500 738.727 652.250 L 739.091 646 744.577 646 C 748.599 646, 750.221 645.588, 750.655 644.457 C 750.981 643.608, 750.966 642.633, 750.624 642.290 C 750.281 641.947, 750 642.394, 750 643.283 M 728.705 645.736 L 733.911 646.101 734.260 652.801 L 734.608 659.500 734.804 652.250 L 735 645 729.250 645.185 L 723.500 645.370 728.705 645.736 M 338.230 729.191 C 338.104 763.671, 338.337 792.091, 338.750 792.346 C 339.431 792.767, 339.421 747.262, 338.728 689 C 338.581 676.625, 338.357 694.711, 338.230 729.191 M 257.654 678.750 C 257.399 679.163, 274.472 679.377, 295.595 679.227 L 334 678.954 334 735.459 L 334 791.964 310.250 792.251 L 286.500 792.538 310.750 792.769 L 335 793 335 735.500 L 335 678 296.559 678 C 275.416 678, 257.909 678.337, 257.654 678.750 M 870.467 736 C 870.467 766.525, 870.594 779.012, 870.749 763.750 C 870.905 748.487, 870.905 723.512, 870.749 708.250 C 870.594 692.987, 870.467 705.475, 870.467 736 M 430.250 685.735 C 432.863 685.941, 437.137 685.941, 439.750 685.735 C 442.363 685.529, 440.225 685.360, 435 685.360 C 429.775 685.360, 427.637 685.529, 430.250 685.735 M 488.250 688.683 L 491.500 689.367 487.500 690.079 L 483.500 690.791 487.500 690.646 C 492.286 690.471, 492.870 688.605, 488.250 688.250 L 485 688 488.250 688.683 M 455.750 729.750 C 491.087 729.896, 548.912 729.896, 584.250 729.750 C 619.587 729.604, 590.675 729.485, 520 729.485 C 449.325 729.485, 420.412 729.604, 455.750 729.750 M 456.828 739.750 C 492.208 739.896, 549.808 739.896, 584.828 739.750 C 619.847 739.604, 590.900 739.485, 520.500 739.485 C 450.100 739.485, 421.447 739.604, 456.828 739.750 M 455.250 741.750 C 490.862 741.895, 549.137 741.895, 584.750 741.750 C 620.362 741.604, 591.225 741.485, 520 741.485 C 448.775 741.485, 419.637 741.604, 455.250 741.750 M 267.993 744.709 C 272.585 745.174, 273.321 746.678, 269.250 747.280 C 266.655 747.663, 266.670 747.681, 269.500 747.593 C 271.459 747.532, 272.500 746.979, 272.500 746 C 272.500 744.917, 271.317 744.473, 268.243 744.402 L 263.985 744.304 267.993 744.709 M 265.982 778.250 C 275.718 788.235, 277 789.454, 277 788.732 C 277 788.585, 272.163 783.747, 266.250 777.982 L 255.500 767.500 265.982 778.250 M 264 792 L 247.500 792.575 264.250 792.788 C 274.892 792.923, 281 792.635, 281 792 C 281 791.450, 280.887 791.096, 280.750 791.212 C 280.613 791.329, 273.075 791.684, 264 792 M 716.302 792.746 C 721.693 792.926, 730.243 792.925, 735.302 792.744 C 740.361 792.563, 735.950 792.416, 725.500 792.417 C 715.050 792.418, 710.911 792.566, 716.302 792.746 M 876.750 792.743 C 880.737 792.932, 887.263 792.932, 891.250 792.743 C 895.237 792.553, 891.975 792.397, 884 792.397 C 876.025 792.397, 872.763 792.553, 876.750 792.743"
        stroke="none" fill-rule="evenodd" fill="#6a9a23" />
    <path
        d="M 324 223.721 C 324 224.551, 325.434 225, 328.083 225 C 330.785 225, 332.033 224.599, 331.772 223.815 C 331.221 222.162, 324 222.075, 324 223.721 M 336 223.440 C 336 224.599, 337.050 225, 340.083 225 C 345.294 225, 344.948 222.635, 339.673 222.190 C 336.879 221.954, 336 222.253, 336 223.440 M 353 223.440 C 353 224.599, 354.050 225, 357.083 225 C 362.294 225, 361.948 222.635, 356.673 222.190 C 353.879 221.954, 353 222.253, 353 223.440 M 365 223.500 C 365 224.583, 366.111 225, 369 225 C 371.889 225, 373 224.583, 373 223.500 C 373 222.417, 371.889 222, 369 222 C 366.111 222, 365 222.417, 365 223.500 M 382 223.500 C 382 224.583, 383.111 225, 386 225 C 388.889 225, 390 224.583, 390 223.500 C 390 222.417, 388.889 222, 386 222 C 383.111 222, 382 222.417, 382 223.500 M 394 223.440 C 394 224.599, 395.050 225, 398.083 225 C 403.294 225, 402.948 222.635, 397.673 222.190 C 394.879 221.954, 394 222.253, 394 223.440 M 411 223.500 C 411 224.761, 411.832 225.052, 414.750 224.810 C 416.813 224.640, 418.500 224.050, 418.500 223.500 C 418.500 222.950, 416.813 222.360, 414.750 222.190 C 411.832 221.948, 411 222.239, 411 223.500 M 423 223.500 C 423 224.548, 424.056 225, 426.500 225 C 428.944 225, 430 224.548, 430 223.500 C 430 222.452, 428.944 222, 426.500 222 C 424.056 222, 423 222.452, 423 223.500 M 439.667 222.667 C 438.121 224.212, 439.247 225, 443 225 C 445.889 225, 447 224.583, 447 223.500 C 447 222.467, 445.963 222, 443.667 222 C 441.833 222, 440.033 222.300, 439.667 222.667 M 451 223.437 C 451 224.564, 452 225, 454.583 225 C 459.102 225, 458.757 222.639, 454.173 222.187 C 451.828 221.955, 451 222.281, 451 223.437 M 467.343 223.254 C 467.013 223.787, 467.281 224.555, 467.937 224.961 C 469.588 225.982, 474.001 225.015, 473.998 223.633 C 473.995 222.241, 468.174 221.909, 467.343 223.254 M 479 223.548 C 479 225.057, 479.212 225.135, 483.750 225.300 C 488.065 225.457, 487.148 222.827, 482.750 222.432 C 479.984 222.184, 479 222.477, 479 223.548 M 495.307 223.312 C 494.421 224.746, 496.763 225.688, 500.023 225.210 C 504.336 224.577, 503.850 222.174, 499.435 222.299 C 497.475 222.355, 495.617 222.810, 495.307 223.312 M 507 223.500 C 507 224.583, 508.111 225, 511 225 C 515.041 225, 516.330 223.724, 513.418 222.607 C 510.453 221.469, 507 221.949, 507 223.500 M 523.304 223.317 C 522.674 224.336, 523.086 224.751, 525 225.023 C 528.330 225.497, 531 224.931, 531 223.750 C 531 222.355, 524.138 221.968, 523.304 223.317 M 536 223.500 C 536 224.548, 537.056 225, 539.500 225 C 543.122 225, 544.188 223.670, 541.418 222.607 C 538.611 221.530, 536 221.960, 536 223.500 M 566.459 223.067 C 565.373 224.824, 566.984 225.363, 572.500 225.087 C 575.360 224.943, 575.409 224.868, 573.559 223.468 C 571.292 221.753, 567.406 221.534, 566.459 223.067 M 773.667 222.667 C 772.121 224.212, 773.247 225, 777 225 C 779.889 225, 781 224.583, 781 223.500 C 781 222.467, 779.963 222, 777.667 222 C 775.833 222, 774.033 222.300, 773.667 222.667 M 788 223.607 C 788 224.662, 788.544 225.005, 789.582 224.607 C 790.452 224.273, 792.252 224, 793.582 224 C 794.912 224, 796 223.550, 796 223 C 796 222.450, 794.200 222, 792 222 C 788.993 222, 788 222.399, 788 223.607 M 800.531 222.950 C 800.206 223.476, 801.866 224.423, 804.220 225.055 C 806.574 225.686, 808.806 226.389, 809.181 226.618 C 809.555 226.846, 810.145 226.574, 810.491 226.014 C 810.837 225.454, 810.081 224.613, 808.810 224.145 C 804.246 222.462, 801.112 222.010, 800.531 222.950 M 295.079 223.943 C 290.033 224.765, 289.871 227, 294.858 227 C 298.798 227, 301.077 225.536, 299.363 224.106 C 298.888 223.710, 296.961 223.637, 295.079 223.943 M 306 224.500 C 306 225.611, 307.167 226, 310.500 226 C 313.833 226, 315 225.611, 315 224.500 C 315 223.389, 313.833 223, 310.500 223 C 307.167 223, 306 223.389, 306 224.500 M 552 223.941 C 552 225.602, 553.876 226.114, 557.483 225.437 C 562.457 224.504, 561.850 223, 556.500 223 C 554.025 223, 552 223.423, 552 223.941 M 582 224 C 582 224.550, 583.575 225, 585.500 225 C 587.425 225, 589 224.550, 589 224 C 589 223.450, 587.425 223, 585.500 223 C 583.575 223, 582 223.450, 582 224 M 594 224 C 594 224.550, 595.800 225, 598 225 C 600.200 225, 602 224.550, 602 224 C 602 223.450, 600.200 223, 598 223 C 595.800 223, 594 223.450, 594 224 M 611 224 C 611 224.550, 612.575 225, 614.500 225 C 616.425 225, 618 224.550, 618 224 C 618 223.450, 616.425 223, 614.500 223 C 612.575 223, 611 223.450, 611 224 M 623 224 C 623 224.550, 624.575 225, 626.500 225 C 628.425 225, 630 224.550, 630 224 C 630 223.450, 628.425 223, 626.500 223 C 624.575 223, 623 223.450, 623 224 M 639 224 C 639 224.550, 640.800 225, 643 225 C 645.200 225, 647 224.550, 647 224 C 647 223.450, 645.200 223, 643 223 C 640.800 223, 639 223.450, 639 224 M 655 224 C 655 224.550, 656.800 225, 659 225 C 661.200 225, 663 224.550, 663 224 C 663 223.450, 661.200 223, 659 223 C 656.800 223, 655 223.450, 655 224 M 669 224 C 669 224.550, 669.863 225, 670.918 225 C 671.973 225, 673.548 225.273, 674.418 225.607 C 675.456 226.005, 676 225.662, 676 224.607 C 676 223.437, 675.048 223, 672.500 223 C 670.575 223, 669 223.450, 669 224 M 685 224 C 685 224.550, 686.800 225, 689 225 C 691.200 225, 693 224.550, 693 224 C 693 223.450, 691.200 223, 689 223 C 686.800 223, 685 223.450, 685 224 M 699 224.299 C 699 225.195, 700.086 225.472, 702.500 225.190 C 704.425 224.965, 706 224.380, 706 223.891 C 706 223.401, 704.425 223, 702.500 223 C 700.296 223, 699 223.481, 699 224.299 M 715 224 C 715 224.550, 716.575 225, 718.500 225 C 720.425 225, 722 224.550, 722 224 C 722 223.450, 720.425 223, 718.500 223 C 716.575 223, 715 223.450, 715 224 M 727 224 C 727 224.550, 728.800 225, 731 225 C 733.200 225, 735 224.550, 735 224 C 735 223.450, 733.200 223, 731 223 C 728.800 223, 727 223.450, 727 224 M 744 224 C 744 224.550, 745.800 225, 748 225 C 750.200 225, 752 224.550, 752 224 C 752 223.450, 750.200 223, 748 223 C 745.800 223, 744 223.450, 744 224 M 757 224 C 757 224.550, 758.575 225, 760.500 225 C 762.425 225, 764 224.550, 764 224 C 764 223.450, 762.425 223, 760.500 223 C 758.575 223, 757 223.450, 757 224 M 283.250 225.780 C 280.913 226.678, 279 227.995, 279 228.707 C 279 230.397, 281.239 230.345, 285.522 228.555 C 287.967 227.534, 288.805 226.655, 288.383 225.555 C 288.055 224.700, 287.722 224.033, 287.643 224.074 C 287.564 224.114, 285.587 224.882, 283.250 225.780 M 816.595 228.846 C 816.308 229.311, 817.856 230.860, 820.036 232.287 C 823.454 234.525, 824 234.645, 824 233.157 C 824 232.208, 822.693 230.659, 821.096 229.716 C 817.786 227.761, 817.321 227.671, 816.595 228.846 M 267.250 234.584 C 263.708 237.375, 263.099 239, 265.596 239 C 267.863 239, 273 235.137, 273 233.432 C 273 231.292, 270.891 231.714, 267.250 234.584 M 828.603 238.833 C 828.320 239.291, 829.240 241.360, 830.647 243.431 C 834.069 248.467, 836.154 246.749, 832.835 241.628 C 830.459 237.962, 829.523 237.344, 828.603 238.833 M 256.250 246.498 C 253.781 250.311, 253.508 251.578, 254.962 252.477 C 256.217 253.252, 261.389 245.439, 260.536 244.058 C 259.476 242.342, 258.630 242.824, 256.250 246.498 M 836 253.062 C 836 255.986, 839.396 264, 840.634 264 C 842.180 264, 841.772 261.065, 839.418 255.250 C 838.170 252.168, 836 250.779, 836 253.062 M 249.114 260.269 C 247.096 265.750, 246.926 268, 248.532 268 C 249.923 268, 253 262.586, 253 260.139 C 253 258.007, 249.909 258.110, 249.114 260.269 M 839.425 272.702 C 839.836 276.561, 842 276.881, 842 273.083 C 842 271.075, 841.501 270, 840.568 270 C 839.608 270, 839.231 270.890, 839.425 272.702 M 246.454 277.327 C 245.496 281.144, 246.312 284.444, 248.308 284.824 C 249.880 285.124, 250.076 284.548, 249.808 280.413 C 249.473 275.234, 247.447 273.371, 246.454 277.327 M 335 344.500 L 335 412 267.607 412 C 207.076 412, 200.152 412.161, 199.607 413.582 C 199.273 414.452, 199 500.169, 199 604.064 L 199 792.965 174.250 793.233 L 149.500 793.500 149.500 796.500 L 149.500 799.500 523.313 799.751 C 787.144 799.929, 897.714 799.688, 899.124 798.934 C 900.385 798.259, 901.007 797.061, 900.811 795.682 C 900.509 793.562, 900.065 793.492, 885.250 793.224 L 870 792.948 870 736.323 L 870 679.699 859.750 680.294 C 829.421 682.058, 801.595 694.337, 780.861 715.108 C 762.687 733.313, 751.993 754.005, 746.548 781.500 L 744.370 792.500 725.685 792.772 L 707 793.044 707 630.454 L 707 467.864 709.970 469.978 C 711.603 471.142, 713.216 472.540, 713.554 473.087 C 714.659 474.876, 721.914 479, 723.955 479 C 725.638 479, 725.856 479.469, 725.350 482 C 724.974 483.878, 725.161 485, 725.849 485 C 726.454 485, 727.647 483.650, 728.500 482 C 729.353 480.350, 730.827 478.991, 731.776 478.980 C 735.223 478.941, 750.516 472.921, 756.927 469.079 C 769.549 461.517, 787.939 445.328, 786.518 443.030 C 786.056 442.282, 783.830 443.751, 780.154 447.230 C 765.554 461.049, 752.260 469.650, 738.009 474.497 L 730.743 476.968 731.274 473.734 C 731.565 471.955, 736.743 457.225, 742.780 441 C 755.186 407.656, 758.442 398.109, 757.669 397.336 C 756.532 396.199, 755.087 398.227, 753.446 403.262 C 752.508 406.143, 746.907 421.550, 741 437.500 C 735.093 453.450, 729.491 468.863, 728.550 471.750 C 727.341 475.460, 726.320 477, 725.070 477 C 722.947 477, 716.753 472.897, 711.110 467.753 L 707 464.005 707 396.253 L 706.999 328.500 764.250 329 L 821.500 329.500 826.216 332.272 C 828.810 333.797, 832.125 336.609, 833.583 338.520 C 838.187 344.557, 838.909 348.223, 838.956 365.823 C 838.996 380.820, 839.142 382.119, 840.750 381.805 C 842.335 381.496, 842.500 379.857, 842.500 364.457 L 842.500 347.451 839.233 340.819 C 836.599 335.471, 834.981 333.554, 830.873 330.918 C 821.774 325.080, 820.835 325, 761.282 325 L 707 325 707 301 L 707 277 521 277 L 335 277 335 344.500 M 338 470.412 L 338 660.825 346.250 663.980 C 361.614 669.856, 376.594 673.850, 393.578 676.599 C 408.616 679.033, 413.228 679.344, 435 679.387 C 453.018 679.423, 462.940 678.970, 472.500 677.677 C 532.419 669.572, 575.243 650.291, 622.456 610.164 C 629.546 604.138, 631.347 603.043, 632.544 604.036 C 633.345 604.701, 634 605.817, 634 606.517 C 634 608.230, 607.947 629.450, 595.500 637.875 C 550.916 668.051, 501.880 683.200, 443.897 684.709 C 407.909 685.645, 373.545 680.548, 348.147 670.504 C 343.273 668.577, 338.992 667, 338.635 667 C 338.277 667, 338.101 695.237, 338.242 729.750 L 338.500 792.500 521 792.500 L 703.500 792.500 703.752 536.250 L 704.004 280 521.002 280 L 338 280 338 470.412 M 840 287.500 C 840 290.525, 840.450 293, 841 293 C 841.550 293, 842 290.525, 842 287.500 C 842 284.475, 841.550 282, 841 282 C 840.450 282, 840 284.475, 840 287.500 M 247.191 296.647 C 247.361 299.316, 247.950 301.387, 248.500 301.250 C 250.016 300.871, 249.738 292.746, 248.191 292.230 C 247.206 291.902, 246.958 292.995, 247.191 296.647 M 840 305.500 C 840 307.975, 840.450 310, 841 310 C 841.550 310, 842 307.975, 842 305.500 C 842 303.025, 841.550 301, 841 301 C 840.450 301, 840 303.025, 840 305.500 M 247 312.917 C 247 316.848, 247.352 318, 248.555 318 C 249.783 318, 250.046 317.018, 249.805 313.328 C 249.370 306.656, 247 306.309, 247 312.917 M 839.446 319.435 C 838.709 323.363, 839.720 326.050, 841.110 323.857 C 842.280 322.010, 842.230 316, 841.045 316 C 840.520 316, 839.801 317.546, 839.446 319.435 M 390.480 325.250 C 390.173 326.488, 390.052 333.125, 390.211 340 L 390.500 352.500 518.809 352.754 C 606.117 352.926, 647.738 352.676, 649.059 351.969 C 650.825 351.023, 651 349.778, 651 338.165 C 651 329.570, 650.608 325.008, 649.800 324.200 C 648.879 323.279, 618.649 323, 519.819 323 L 391.038 323 390.480 325.250 M 247 330.083 C 247 336.691, 249.370 336.344, 249.805 329.672 C 250.046 325.982, 249.783 325, 248.555 325 C 247.352 325, 247 326.152, 247 330.083 M 545.220 337.741 L 545.500 350.500 595 350.777 C 622.225 350.929, 645.526 350.805, 646.781 350.500 C 649.020 349.957, 649.056 349.725, 648.781 337.723 L 648.500 325.500 596.720 325.241 L 544.940 324.982 545.220 337.741 M 247 346 C 247 349.778, 247.367 351, 248.500 351 C 249.633 351, 250 349.778, 250 346 C 250 342.222, 249.633 341, 248.500 341 C 247.367 341, 247 342.222, 247 346 M 247 362.917 C 247 366.848, 247.352 368, 248.555 368 C 249.783 368, 250.046 367.018, 249.805 363.328 C 249.370 356.656, 247 356.309, 247 362.917 M 247 380 C 247 383.778, 247.367 385, 248.500 385 C 249.633 385, 250 383.778, 250 380 C 250 376.222, 249.633 375, 248.500 375 C 247.367 375, 247 376.222, 247 380 M 839.667 388.667 C 839.300 389.033, 839 391.283, 839 393.667 C 839 396.852, 839.397 398, 840.500 398 C 841.633 398, 842 396.778, 842 393 C 842 388.353, 841.293 387.040, 839.667 388.667 M 247 395.417 C 247 400.692, 247.307 402, 248.548 402 C 249.810 402, 250.040 400.861, 249.798 395.829 C 249.613 392.009, 249.024 389.502, 248.250 389.246 C 247.335 388.944, 247 390.597, 247 395.417 M 839.702 406.750 C 838.943 409.815, 839.647 415.382, 840.845 415.782 C 841.627 416.042, 842 414.362, 842 410.583 C 842 405.279, 840.631 402.996, 839.702 406.750 M 137.250 412.710 C 136.012 412.946, 135 413.783, 135 414.570 C 135 415.637, 136.397 416, 140.500 416 C 144.722 416, 146 415.652, 146 414.500 C 146 413.675, 145.137 413, 144.082 413 C 143.027 413, 141.564 412.838, 140.832 412.640 C 140.099 412.443, 138.488 412.474, 137.250 412.710 M 153.750 412.786 C 149.265 413.352, 150.295 416, 155 416 C 157.752 416, 159 415.566, 159 414.607 C 159 412.898, 157.364 412.331, 153.750 412.786 M 170.250 412.718 C 166.261 413.465, 167.567 416, 171.941 416 C 175.280 416, 178.053 414.620, 176.850 413.558 C 175.995 412.803, 172.306 412.333, 170.250 412.718 M 184.750 412.721 C 183.220 412.950, 182 413.769, 182 414.566 C 182 415.620, 183.325 416, 187 416 C 190.778 416, 192 415.633, 192 414.500 C 192 413.675, 191.587 413, 191.082 413 C 190.577 413, 189.564 412.845, 188.832 412.655 C 188.099 412.465, 186.262 412.495, 184.750 412.721 M 414.500 415.031 C 400.324 420.493, 393.058 435.367, 397.351 450.136 C 399.755 458.405, 403.797 463.282, 411.311 466.981 C 431.343 476.843, 452.572 463.117, 452.268 440.500 C 452.121 429.608, 446.668 420.989, 436.804 416.060 C 429.470 412.395, 422.209 412.060, 414.500 415.031 M 203 604.500 L 203 793 242 793 C 263.450 793, 281 792.848, 281 792.662 C 281 792.477, 275.150 786.536, 268 779.462 L 255 766.599 255 672.845 L 255 579.092 251.971 569.796 C 247.424 555.846, 244.135 538.088, 242.936 521.017 C 241.798 504.819, 242.219 502.391, 245.778 504.628 C 247.211 505.529, 247.606 507.963, 248.134 519.136 C 248.739 531.951, 252.137 553.716, 254.041 556.967 C 254.582 557.891, 254.951 541.987, 254.970 516.950 C 254.992 486.001, 255.306 475.094, 256.200 474.200 C 257.069 473.331, 264.239 473, 282.174 473 L 306.949 473 308.354 475.750 C 309.127 477.262, 310.074 479.962, 310.459 481.750 L 311.159 485 323.079 485 L 335 485 335 450.500 L 335 416 269 416 L 203 416 203 604.500 M 757.559 417.775 C 756.639 418.695, 758.094 420.013, 761.691 421.515 C 766.028 423.327, 767 423.369, 767 421.742 C 767 420.452, 758.467 416.866, 757.559 417.775 M 474.450 420.081 C 474.078 420.682, 474.188 421.588, 474.693 422.093 C 475.241 422.641, 507.923 422.909, 555.556 422.756 C 625.837 422.531, 635.500 422.319, 635.500 421 C 635.500 419.681, 625.810 419.469, 555.313 419.244 C 498.127 419.062, 474.932 419.302, 474.450 420.081 M 839.195 428.672 C 839.630 435.344, 842 435.691, 842 429.083 C 842 425.152, 841.648 424, 840.445 424 C 839.217 424, 838.954 424.982, 839.195 428.672 M 474.379 440.195 C 474.061 440.711, 473.985 441.318, 474.211 441.544 C 474.437 441.770, 511.044 441.986, 555.561 442.024 C 621.222 442.080, 636.500 441.848, 636.500 440.796 C 636.500 439.746, 621.154 439.477, 555.730 439.379 C 506.388 439.305, 474.733 439.622, 474.379 440.195 M 839 446 C 839 449.778, 839.367 451, 840.500 451 C 841.633 451, 842 449.778, 842 446 C 842 442.222, 841.633 441, 840.500 441 C 839.367 441, 839 442.222, 839 446 M 839 464.500 C 839 468.722, 839.348 470, 840.500 470 C 841.652 470, 842 468.722, 842 464.500 C 842 460.278, 841.652 459, 840.500 459 C 839.348 459, 839 460.278, 839 464.500 M 473.694 460.639 C 473.342 460.991, 473.294 461.666, 473.586 462.139 C 473.879 462.613, 501.766 463, 535.559 463 C 589.507 463, 597 462.817, 597 461.500 C 597 460.183, 589.519 460, 535.667 460 C 501.933 460, 474.046 460.288, 473.694 460.639 M 840.250 475.662 C 838.324 476.440, 838.557 487, 840.500 487 C 841.667 487, 842 485.667, 842 481 C 842 477.700, 841.888 475.036, 841.750 475.079 C 841.612 475.122, 840.938 475.385, 840.250 475.662 M 279.750 476.749 L 258 477.039 258 491.043 L 258 505.046 275.734 504.773 L 293.468 504.500 294.084 500.706 C 294.422 498.619, 295.734 494.702, 296.999 492.001 C 299.277 487.138, 302.361 485, 307.097 485 C 308.681 485, 308.767 484.611, 307.820 481.750 C 306.684 478.318, 304.328 475.846, 302.559 476.229 C 301.976 476.356, 291.712 476.589, 279.750 476.749 M 301.557 490.352 C 299.334 492.575, 298.611 494.446, 296.280 504 L 295.427 507.500 276.675 507.772 L 257.924 508.044 258.212 541.272 L 258.500 574.500 262.787 584.086 C 272.209 605.154, 288.660 626.432, 306.500 640.624 C 316.748 648.776, 331.286 658, 333.887 658 C 334.739 658, 334.963 636.343, 334.766 573.250 L 334.500 488.500 319.231 488.224 C 304.265 487.953, 303.914 487.996, 301.557 490.352 M 424.457 507.379 C 423.949 510.088, 423.439 510.666, 421.911 510.266 C 420.860 509.992, 420 510.238, 420 510.814 C 420 511.390, 421.012 512.005, 422.250 512.180 L 424.500 512.500 424.500 537.500 L 424.500 562.500 408.500 562.759 C 399.700 562.902, 391.825 563.352, 391 563.759 C 390.175 564.167, 426.175 564.725, 471 565 L 552.500 565.500 552.761 605.802 C 552.932 632.040, 553.368 645.891, 554.011 645.493 C 555.088 644.827, 555.454 567.347, 554.393 564.582 C 553.848 563.162, 547.277 563, 490.393 563 L 427 563 427 534.500 L 427 506 538 506 L 649 506 649 521.500 C 649 531.416, 649.369 537, 650.025 537 C 650.694 537, 650.954 531.357, 650.775 520.750 L 650.500 504.500 537.796 504.246 L 425.092 503.991 424.457 507.379 M 806.446 578.087 C 805.416 579.755, 807.733 581.667, 809.113 580.287 C 810.267 579.133, 809.545 577, 808 577 C 807.515 577, 806.816 577.489, 806.446 578.087 M 799.446 581.087 C 798.588 582.476, 800.490 584.433, 801.869 583.581 C 803.018 582.871, 802.282 580, 800.952 580 C 800.493 580, 799.816 580.489, 799.446 581.087 M 813.446 581.087 C 812.416 582.755, 814.733 584.667, 816.113 583.287 C 817.267 582.133, 816.545 580, 815 580 C 814.515 580, 813.816 580.489, 813.446 581.087 M 631 583.098 C 617.245 586.631, 597.522 592.269, 595.750 593.175 C 593.735 594.206, 593.398 597.629, 595.250 598.257 C 595.938 598.490, 599.650 597.658, 603.500 596.409 C 613.399 593.197, 639.454 586, 641.183 586 C 641.979 586, 643.386 587.586, 644.310 589.524 C 645.869 592.794, 654.924 623.484, 656.453 630.681 C 657.384 635.062, 659.320 636.538, 661.403 634.454 C 662.292 633.566, 662.847 632.538, 662.638 632.169 C 662.429 631.801, 659.665 622.275, 656.496 611 C 650.075 588.155, 648.077 583.360, 644.394 581.960 C 641.098 580.707, 639.919 580.807, 631 583.098 M 400.090 590.623 L 392.937 597.245 393.044 616.682 C 393.167 639.017, 393.912 642.230, 399.510 644.569 C 404.049 646.465, 413.377 646.389, 417.522 644.423 C 423.125 641.764, 423.839 638.823, 424.188 616.979 L 424.500 597.500 417.191 590.750 C 413.172 587.038, 409.289 584, 408.563 584 C 407.837 584, 404.025 586.980, 400.090 590.623 M 401.366 592.700 L 395.232 599.357 395.069 617.098 C 394.843 641.683, 396.001 644, 408.518 644 C 420.864 644, 422 641.764, 422 617.469 L 422 598.747 415.250 592.399 C 411.538 588.907, 408.275 586.048, 408 586.046 C 407.725 586.044, 404.740 589.038, 401.366 592.700 M 258.010 630.750 L 258 675 296.469 675 L 334.938 675 334.592 670.603 C 334.146 664.939, 333.986 664.725, 327.781 661.481 C 300.869 647.409, 272.839 618.320, 260.348 591.500 L 258.020 586.500 258.010 630.750 M 816.667 587.667 C 815.755 588.578, 815.821 592.004, 816.750 591.985 C 818.603 591.947, 820.236 590.059, 819.677 588.601 C 819.033 586.923, 817.795 586.539, 816.667 587.667 M 796.177 589.667 C 796.663 592.176, 799 592.520, 799 590.083 C 799 588.855, 798.354 588, 797.427 588 C 796.495 588, 795.985 588.680, 796.177 589.667 M 799 596.878 C 799 597.360, 799.635 598.282, 800.411 598.926 C 801.978 600.227, 803.581 598.749, 802.500 597 C 801.738 595.768, 799 595.672, 799 596.878 M 807 604 C 807 606.750, 807.450 609, 808 609 C 808.550 609, 809 606.750, 809 604 C 809 601.250, 808.550 599, 808 599 C 807.450 599, 807 601.250, 807 604 M 441 602 C 441 602.583, 444.333 603, 449 603 C 453.667 603, 457 602.583, 457 602 C 457 601.417, 453.667 601, 449 601 C 444.333 601, 441 601.417, 441 602 M 467 602 C 467 602.583, 470.333 603, 475 603 C 479.667 603, 483 602.583, 483 602 C 483 601.417, 479.667 601, 475 601 C 470.333 601, 467 601.417, 467 602 M 493 602 C 493 602.583, 496.333 603, 501 603 C 505.667 603, 509 602.583, 509 602 C 509 601.417, 505.667 601, 501 601 C 496.333 601, 493 601.417, 493 602 M 520 602 C 520 602.578, 523.167 603, 527.500 603 C 531.833 603, 535 602.578, 535 602 C 535 601.422, 531.833 601, 527.500 601 C 523.167 601, 520 601.422, 520 602 M 735 635 L 735 642 729 642 C 724.333 642, 723 642.333, 723 643.500 C 723 644.667, 724.333 645, 729 645 L 735 645 735 652.500 C 735 658.400, 735.311 660, 736.456 660 C 737.570 660, 737.981 658.296, 738.206 652.750 L 738.500 645.500 744.250 645.200 C 748.469 644.980, 750 644.514, 750 643.450 C 750 642.344, 748.575 642, 744 642 L 738 642 738 635 C 738 629.444, 737.690 628, 736.500 628 C 735.310 628, 735 629.444, 735 635 M 807 632 C 807 633.650, 807.450 635, 808 635 C 808.550 635, 809 633.650, 809 632 C 809 630.350, 808.550 629, 808 629 C 807.450 629, 807 630.350, 807 632 M 441 631 C 441 631.577, 444.147 632, 448.441 632 C 452.534 632, 456.160 631.550, 456.500 631 C 456.892 630.365, 454.177 630, 449.059 630 C 444.353 630, 441 630.416, 441 631 M 467 631 C 467 631.583, 470.333 632, 475 632 C 479.667 632, 483 631.583, 483 631 C 483 630.417, 479.667 630, 475 630 C 470.333 630, 467 630.417, 467 631 M 493 631 C 493 631.583, 496.333 632, 501 632 C 505.667 632, 509 631.583, 509 631 C 509 630.417, 505.667 630, 501 630 C 496.333 630, 493 630.417, 493 631 M 520 631 C 520 631.578, 523.167 632, 527.500 632 C 531.833 632, 535 631.578, 535 631 C 535 630.422, 531.833 630, 527.500 630 C 523.167 630, 520 630.422, 520 631 M 806 638.500 C 805.315 639.325, 804.168 640, 803.450 640 C 801.566 640, 798.013 644.871, 798.663 646.564 C 799.355 648.368, 801 648.446, 801 646.674 C 801 644.484, 805.447 641, 808.243 641 C 811.121 641, 813.524 642.926, 814.506 646.020 C 815.246 648.350, 817 647.713, 817 645.115 C 817 643.300, 814.209 640.455, 810.264 638.250 C 807.472 636.690, 807.504 636.688, 806 638.500 M 257.979 678.750 C 257.573 693.560, 258.277 764.672, 258.840 765.679 C 260.239 768.178, 279.343 787.231, 283.400 790.172 L 287.300 793 311.150 793 L 335 793 335 735.500 L 335 678 296.500 678 C 275.325 678, 257.991 678.337, 257.979 678.750 M 270 685.750 C 270 686.777, 276.641 692, 277.947 692 C 279.622 692, 279.213 691.220, 275.852 688.009 C 272.895 685.183, 270 684.066, 270 685.750 M 390.738 688.692 C 387.566 689.519, 390.018 691, 394.559 691 C 397.840 691, 399 690.608, 399 689.500 C 399 688.010, 394.893 687.608, 390.738 688.692 M 408 688.893 C 408 689.384, 408.591 690.013, 409.313 690.290 C 411.239 691.029, 416.069 689.920, 415.429 688.886 C 414.713 687.726, 408 687.733, 408 688.893 M 424 689.500 C 424 691.110, 425.182 691.326, 428.750 690.370 C 432.191 689.448, 431.427 688, 427.500 688 C 425.056 688, 424 688.452, 424 689.500 M 470.338 689.136 C 468.699 689.781, 468.735 689.867, 470.668 689.930 C 471.861 689.968, 473.548 690.273, 474.418 690.607 C 475.440 690.999, 476 690.667, 476 689.669 C 476 688.064, 473.627 687.841, 470.338 689.136 M 536 689.500 C 536 691.088, 537.989 691.377, 541.835 690.348 C 543.578 689.881, 543.831 689.508, 542.835 688.877 C 540.553 687.430, 536 687.846, 536 689.500 M 552 689.499 C 552 690.594, 552.945 690.931, 555.498 690.749 C 559.223 690.484, 560.013 689.603, 557.418 688.607 C 554.612 687.530, 552 687.960, 552 689.499 M 567.496 689.007 C 566.701 690.292, 569.510 691.402, 571.563 690.614 C 573.567 689.845, 572.464 688, 570 688 C 568.965 688, 567.838 688.453, 567.496 689.007 M 583.235 688.715 C 580.071 689.313, 581.480 691, 585.142 691 C 587.032 691, 588.018 690.555, 587.771 689.813 C 587.298 688.393, 586.263 688.143, 583.235 688.715 M 598.527 688.956 C 598.168 689.538, 598.529 690.266, 599.331 690.574 C 601.577 691.436, 608.500 690.625, 608.500 689.500 C 608.500 688.134, 599.344 687.635, 598.527 688.956 M 453.500 690 C 456.289 691.198, 460 691.198, 460 690 C 460 689.450, 458.087 689.032, 455.750 689.070 C 452.458 689.125, 451.951 689.334, 453.500 690 M 270.130 699.670 C 267.856 704.350, 267.989 706.515, 270.392 703.940 C 272.176 702.030, 274.083 696.169, 273.116 695.571 C 272.695 695.311, 271.351 697.156, 270.130 699.670 M 293.441 704.532 C 296.136 706.570, 298.699 706.547, 297 704.500 C 296.315 703.675, 294.798 703.014, 293.628 703.032 C 291.542 703.063, 291.538 703.092, 293.441 704.532 M 264 710.206 C 264 710.981, 265.940 712.982, 268.311 714.654 C 271.137 716.646, 272.951 718.838, 273.576 721.018 C 274.101 722.847, 275.086 724.529, 275.765 724.755 C 277.777 725.426, 277.180 722.925, 274.485 719.391 C 273.101 717.577, 272.089 715.599, 272.235 714.995 C 272.381 714.392, 270.587 712.750, 268.250 711.347 C 265.134 709.478, 264 709.173, 264 710.206 M 816.976 715.016 C 812.404 718.042, 811.285 720.239, 814.044 720.770 C 816.314 721.207, 823.763 714.440, 822.476 713.111 C 821.762 712.372, 820.101 712.947, 816.976 715.016 M 389.972 729.028 C 387.389 731.611, 387.008 737.052, 389.220 739.750 C 390.030 740.738, 417.422 741, 520.066 741 L 649.887 741 651.443 738.777 C 653.685 735.578, 653.363 732.272, 650.536 729.445 L 648.072 726.981 520.008 727.019 C 393.915 727.056, 391.913 727.087, 389.972 729.028 M 390.557 731.223 C 388.499 734.160, 388.593 735.593, 391 738 C 392.979 739.979, 394.333 740, 520.066 740 C 605.743 740, 647.762 739.663, 649.066 738.965 C 651.447 737.690, 651.658 732.801, 649.429 730.571 C 648.016 729.159, 634.899 729, 519.985 729 L 392.113 729 390.557 731.223 M 278.200 742.123 C 276.698 746.936, 277.110 748.010, 279.220 744.781 C 281.604 741.136, 282.339 738, 280.811 738 C 280.083 738, 278.908 739.855, 278.200 742.123 M 776.542 743.932 C 775.449 745.700, 776.762 746.762, 782.262 748.556 C 785.143 749.496, 788.082 750.726, 788.792 751.290 C 789.679 751.994, 790.421 751.979, 791.155 751.245 C 792.804 749.596, 791.433 748.308, 785.731 746.151 C 782.854 745.063, 779.758 743.878, 778.851 743.518 C 777.944 743.158, 776.905 743.344, 776.542 743.932 M 263 745.917 C 263 747.238, 264.739 747.629, 268.609 747.177 C 273.567 746.598, 272.752 745, 267.500 745 C 265.025 745, 263 745.413, 263 745.917 M 276.954 755.250 C 278.137 757.038, 280.319 760.631, 281.803 763.236 C 284.441 767.867, 286 769.194, 286 766.808 C 286 764.466, 277.882 752, 276.357 752 C 275.075 752, 275.179 752.568, 276.954 755.250 M 799 759.044 C 799 759.618, 801.192 762.722, 803.871 765.941 C 807.536 770.345, 808.913 772.934, 809.432 776.397 C 809.908 779.569, 810.600 781, 811.658 781 C 812.880 781, 813.122 779.979, 812.847 775.999 C 812.558 771.830, 812.782 770.999, 814.194 770.999 C 816.796 771, 821.717 766.360, 820.466 765.085 C 819.744 764.350, 818.270 764.858, 815.589 766.766 L 811.746 769.500 806.520 763.750 C 801.578 758.312, 799 756.699, 799 759.044 M 292.081 775.403 C 291.402 776.221, 290.999 777.927, 291.185 779.195 C 291.521 781.479, 291.541 781.474, 293.410 778.699 C 295.506 775.588, 294.335 772.686, 292.081 775.403"
        stroke="none" fill-rule="evenodd" fill="#28311b" />
    <path
        d="M 591.386 192.713 C 589.656 192.932, 587.063 194.368, 585.551 195.947 C 582.997 198.613, 582.796 199.495, 582.275 210.325 L 581.721 221.863 585.610 222.181 C 590.851 222.611, 591.021 225.373, 585.834 225.805 C 582.979 226.043, 582.094 225.721, 581.834 224.349 C 581.176 220.877, 582.135 265.607, 582.823 270.500 L 583.527 275.500 645.014 276 L 706.500 276.500 707 300.500 L 707.500 324.500 764.500 325 L 821.500 325.500 827.182 328.290 C 834.177 331.725, 838.154 336.123, 840.897 343.456 C 842.721 348.331, 843 351.256, 843 365.538 C 843 380.994, 842.885 382, 841.117 382 C 838.433 382, 838.032 379.496, 837.992 362.500 C 837.951 345.209, 836.991 341.915, 830.216 335.806 C 822.723 329.051, 822.206 329, 761.318 329 L 707 329 707 396.379 L 707 463.757 712.588 468.531 C 718.799 473.837, 725.028 477.388, 726.123 476.246 C 726.516 475.836, 729.757 467.400, 733.324 457.500 C 748.623 415.044, 754.853 398.047, 755.494 397.009 C 755.987 396.211, 756.543 396.206, 757.488 396.990 C 758.923 398.181, 756.272 406.422, 743.377 440.864 C 734.659 464.149, 730.829 475.163, 731.290 475.624 C 731.498 475.831, 734.555 475.065, 738.084 473.921 C 751.456 469.587, 767.474 459.260, 778.966 447.563 C 781.972 444.503, 784.972 442, 785.633 442 C 788.679 442, 787.074 444.910, 780.703 450.943 C 765.543 465.297, 752.442 473.457, 737.221 478.027 C 731.265 479.815, 729.666 480.745, 728.428 483.139 C 726.737 486.409, 724.577 485.992, 725.240 482.524 C 725.586 480.716, 725.010 480.044, 722.261 479.050 C 720.387 478.372, 716.418 475.834, 713.441 473.409 C 710.464 470.984, 707.797 469, 707.514 469 C 707.231 469, 707 541.675, 707 630.500 L 707 792 726 792 L 745 792 745 789.065 C 745 780.512, 751.332 759.299, 757.634 746.740 C 766.446 729.180, 782.016 711.058, 796.916 701.022 C 816.331 687.944, 842.709 679.528, 862.151 680.208 L 870.500 680.500 870.500 736.152 L 870.500 791.803 883.899 791.946 C 891.269 792.025, 898.131 792.535, 899.149 793.080 C 900.948 794.043, 901 785.763, 901 496.670 L 901 199.270 898.955 196.669 C 897.829 195.239, 895.242 193.606, 893.205 193.040 C 889.690 192.064, 599.022 191.749, 591.386 192.713 M 364.336 222.567 C 364.005 223.429, 364.219 224.619, 364.811 225.211 C 365.580 225.980, 365.719 225.643, 365.298 224.032 C 364.740 221.899, 364.958 221.795, 369.259 222.138 C 371.761 222.337, 373.600 222.162, 373.346 221.750 C 372.425 220.261, 364.961 220.938, 364.336 222.567 M 790.250 221.689 C 789.013 221.936, 788 222.783, 788 223.570 C 788 224.602, 789.274 225, 792.573 225 C 796.389 225, 797.091 224.710, 796.813 223.250 C 796.469 221.446, 794.179 220.902, 790.250 221.689 M 593.500 223 C 592.354 224.854, 594.095 226, 598.059 226 C 601.333 226, 602 225.662, 602 224 C 602 222.338, 601.333 222, 598.059 222 C 595.891 222, 593.840 222.450, 593.500 223 M 611 223.940 C 611 225.683, 611.627 226, 615.073 226 C 618.412 226, 619.087 225.685, 618.815 224.250 C 618.583 223.027, 617.357 222.407, 614.742 222.190 C 611.530 221.923, 611 222.171, 611 223.940 M 623 224 C 623 225.839, 623.498 226.080, 626.750 225.810 C 629.279 225.601, 630.500 225.011, 630.500 224 C 630.500 222.989, 629.279 222.399, 626.750 222.190 C 623.498 221.920, 623 222.161, 623 224 M 639 224 C 639 225.667, 639.667 226, 643 226 C 646.333 226, 647 225.667, 647 224 C 647 222.333, 646.333 222, 643 222 C 639.667 222, 639 222.333, 639 224 M 655.185 223.750 C 655.417 224.973, 656.643 225.593, 659.258 225.810 C 662.470 226.077, 663 225.829, 663 224.060 C 663 222.317, 662.373 222, 658.927 222 C 655.588 222, 654.913 222.315, 655.185 223.750 M 669 224 C 669 225.839, 669.498 226.080, 672.750 225.810 C 675.279 225.601, 676.500 225.011, 676.500 224 C 676.500 222.989, 675.279 222.399, 672.750 222.190 C 669.498 221.920, 669 222.161, 669 224 M 685.714 222.619 C 683.769 224.564, 685.196 226, 689.073 226 C 692.412 226, 693.087 225.685, 692.815 224.250 C 692.474 222.451, 687.114 221.220, 685.714 222.619 M 698.667 222.667 C 696.781 224.552, 698.229 226, 702 226 C 705.333 226, 706 225.667, 706 224 C 706 222.400, 705.333 222, 702.667 222 C 700.833 222, 699.033 222.300, 698.667 222.667 M 714.480 223.032 C 713.339 224.878, 715.489 226.170, 719.123 225.823 C 723.908 225.365, 723.694 222.600, 718.843 222.195 C 716.831 222.028, 714.868 222.404, 714.480 223.032 M 727 224 C 727 225.870, 727.493 226.079, 731.250 225.807 C 734.224 225.592, 735.500 225.050, 735.500 224 C 735.500 222.950, 734.224 222.408, 731.250 222.193 C 727.493 221.921, 727 222.130, 727 224 M 744 224 C 744 225.870, 744.493 226.079, 748.250 225.807 C 751.224 225.592, 752.500 225.050, 752.500 224 C 752.500 222.950, 751.224 222.408, 748.250 222.193 C 744.493 221.921, 744 222.130, 744 224 M 756.178 223.688 C 756.638 226.075, 764.500 226.370, 764.500 224 C 764.500 222.945, 763.213 222.407, 760.165 222.188 C 756.432 221.920, 755.878 222.128, 756.178 223.688 M 772.676 223.402 C 771.894 225.441, 772.860 226, 777.167 226 C 780.333 226, 781 225.652, 781 224 C 781 222.342, 780.333 222, 777.107 222 C 774.690 222, 773.010 222.532, 772.676 223.402 M 800 223.293 C 800 224.004, 802.031 225.129, 804.514 225.793 C 810.294 227.338, 811 227.312, 811 225.547 C 811 224.720, 809.385 223.645, 807.250 223.053 C 802.230 221.659, 800 221.732, 800 223.293 M 315 224.279 C 315 225.482, 313.797 225.985, 310.250 226.265 L 305.500 226.640 310.281 226.820 C 313.788 226.952, 315.221 226.589, 315.655 225.457 C 315.981 224.608, 315.966 223.633, 315.624 223.290 C 315.281 222.947, 315 223.392, 315 224.279 M 816.569 228.889 C 815.975 229.850, 822.181 235, 823.933 235 C 825.919 235, 825.015 232.157, 822.365 230.073 C 819.560 227.866, 817.465 227.438, 816.569 228.889 M 828.365 238.021 C 827.516 238.881, 827.876 240.158, 829.792 243.085 C 831.202 245.238, 832.950 247, 833.678 247 C 835.873 247, 835.170 243.627, 832.250 240.148 C 830.185 237.687, 829.217 237.158, 828.365 238.021 M 836.203 251.874 C 834.560 252.890, 838.609 265, 840.592 265 C 842.430 265, 842.373 262.450, 840.406 256.679 C 838.651 251.528, 837.989 250.771, 836.203 251.874 M 839.688 269.646 C 838.384 270.950, 838.994 275.784, 840.538 276.376 C 842.319 277.060, 843.303 275.136, 842.829 271.901 C 842.489 269.584, 840.894 268.439, 839.688 269.646 M 839 287 C 839 292.316, 839.237 293.101, 840.750 292.810 C 842.162 292.538, 842.500 291.417, 842.500 287 C 842.500 282.583, 842.162 281.462, 840.750 281.190 C 839.237 280.899, 839 281.684, 839 287 M 839.434 301.312 C 838.339 304.165, 839.419 310.500, 841 310.500 C 842.130 310.500, 842.500 309.287, 842.500 305.583 C 842.500 300.741, 840.645 298.156, 839.434 301.312 M 838.657 319.726 C 837.520 326.735, 841.246 326.758, 842.533 319.750 C 843.140 316.447, 842.986 316, 841.242 316 C 839.731 316, 839.118 316.882, 838.657 319.726 M 348.750 321.746 L 339 322.072 339 338.053 L 339 354.034 364.214 353.767 L 389.427 353.500 389.125 340.210 C 388.883 329.540, 389.127 326.455, 390.366 324.564 C 391.815 322.352, 391.775 322.174, 389.704 321.618 C 387.542 321.038, 368.029 321.099, 348.750 321.746 M 569.750 322.749 C 582.538 322.907, 603.463 322.907, 616.250 322.749 C 629.038 322.591, 618.575 322.461, 593 322.461 C 567.425 322.461, 556.963 322.591, 569.750 322.749 M 597.218 325.745 L 647.937 326.018 648.268 337.511 L 648.600 349.003 648.550 337.252 L 648.500 325.500 597.500 325.486 L 546.500 325.473 597.218 325.745 M 835.345 328.543 C 835.019 329.392, 835.014 330.347, 835.333 330.667 C 836.342 331.676, 839 330.128, 839 328.531 C 839 326.535, 836.112 326.545, 835.345 328.543 M 321 372.091 C 301.426 373.222, 280.122 378.231, 258 386.903 L 250.500 389.844 250.202 395.922 C 249.945 401.182, 249.642 402, 247.952 402 C 246.276 402, 246 401.293, 246 397 C 246 394.250, 245.833 392, 245.628 392 C 245.424 392, 241.036 394.397, 235.878 397.327 C 225.286 403.343, 217 408.990, 217 410.193 C 217 410.637, 213.202 411, 208.559 411 C 203.916 411, 199.909 411.337, 199.654 411.750 C 199.399 412.163, 229.523 412.381, 266.595 412.236 L 334 411.972 334 392.045 C 334 381.085, 333.663 371.963, 333.250 371.773 C 332.837 371.582, 327.325 371.726, 321 372.091 M 247.838 374.667 C 249.992 375.123, 250.149 375.585, 249.838 380.534 C 249.652 383.489, 249.865 385.540, 250.310 385.093 C 250.756 384.645, 250.981 382.079, 250.810 379.390 C 250.530 374.976, 250.257 374.484, 248 374.336 C 245.629 374.181, 245.621 374.198, 247.838 374.667 M 839.195 393.166 C 839.420 397.105, 839.892 398.500, 841 398.500 C 842.133 398.500, 842.500 397.279, 842.500 393.514 C 842.500 389.502, 842.147 388.459, 840.695 388.180 C 839.108 387.874, 838.927 388.476, 839.195 393.166 M 839 410.427 C 839 415.214, 839.265 416, 840.879 416 C 842.495 416, 842.740 415.267, 842.629 410.763 C 842.527 406.633, 842.130 405.455, 840.750 405.190 C 839.252 404.902, 839 405.657, 839 410.427 M 181.336 414 C 181.484 416.257, 181.976 416.530, 186.390 416.810 C 189.079 416.981, 191.645 416.756, 192.093 416.310 C 192.540 415.865, 190.489 415.652, 187.534 415.838 C 182.585 416.149, 182.123 415.992, 181.667 413.838 C 181.198 411.621, 181.181 411.629, 181.336 414 M 198.208 419.326 L 198 425.152 187.365 436.483 C 157.378 468.432, 137.643 508.788, 129.894 554 C 127.894 565.670, 127.578 570.956, 127.564 593 C 127.550 612.950, 127.930 620.677, 129.307 628.500 C 137.540 675.267, 156.070 713.327, 186.451 745.871 L 198 758.243 198 775.121 L 198 792 174.122 792 C 152.571 792, 150.111 792.171, 148.872 793.750 C 147.661 795.295, 147.685 795.356, 149.080 794.268 C 150.207 793.390, 157.517 792.960, 174.580 792.768 L 198.500 792.500 198.772 612 C 199.016 450.485, 198.870 400.731, 198.208 419.326 M 134.655 416.250 C 134.909 416.663, 137.540 417, 140.500 417 C 143.460 417, 146.091 416.663, 146.345 416.250 C 146.600 415.837, 143.970 415.500, 140.500 415.500 C 137.030 415.500, 134.400 415.837, 134.655 416.250 M 203.247 604.277 L 203.500 792.500 219.500 792.541 L 235.500 792.581 219.750 792.265 L 204 791.949 204 777.545 L 204 763.141 214.384 770.959 C 225.149 779.064, 235.253 785.348, 244.266 789.544 C 249.088 791.789, 250.699 791.981, 264.744 791.990 L 279.987 792 268.417 780.792 C 262.054 774.627, 256.422 768.789, 255.903 767.819 C 255.330 766.749, 254.965 729.341, 254.974 672.636 C 254.987 592.538, 254.778 578.714, 253.514 575.687 C 251.419 570.673, 245.369 546.878, 243.959 538.103 C 243.305 534.034, 242.709 524.809, 242.635 517.603 L 242.500 504.500 245 504.500 C 247.210 504.500, 247.528 504.964, 247.739 508.500 C 248.613 523.113, 250.463 539.738, 252.024 547 L 253.851 555.500 254.105 527 C 254.480 484.788, 254.723 475.257, 255.456 474.071 C 255.899 473.354, 264.678 473, 282.005 473 L 307.893 473 310.080 479 L 312.268 485 323.109 485 L 333.949 485 334.225 450.487 L 334.500 415.973 268.747 416.014 L 202.995 416.055 203.247 604.277 M 405.973 418.520 C 404.094 419.906, 402.145 421.819, 401.641 422.770 C 401.137 423.722, 402.474 422.926, 404.613 421.003 C 406.751 419.079, 408.928 417.167, 409.450 416.753 C 411.892 414.818, 408.996 416.289, 405.973 418.520 M 757 418.348 C 757 420.071, 764.395 423.446, 766.446 422.659 C 769.113 421.636, 768.176 420.532, 763.116 418.735 C 757.242 416.649, 757 416.633, 757 418.348 M 635.657 421.451 C 635.134 422.813, 625.929 423.018, 554.784 423.250 L 474.500 423.512 554.628 423.756 C 625.395 423.971, 634.903 423.822, 636.020 422.476 C 636.716 421.638, 637.051 420.718, 636.766 420.433 C 636.481 420.147, 635.982 420.605, 635.657 421.451 M 839 428.427 C 839 433.381, 839.228 434, 841.052 434 C 842.899 434, 843.074 433.476, 842.802 428.759 C 842.569 424.709, 842.103 423.443, 840.750 423.186 C 839.253 422.901, 839 423.659, 839 428.427 M 840.141 440.913 C 838.354 442.017, 839.016 451.500, 840.880 451.500 C 841.821 451.500, 842.391 449.859, 842.673 446.336 C 843.096 441.058, 842.382 439.528, 840.141 440.913 M 473.659 459.742 C 473.401 460.159, 501.013 460.381, 535.019 460.235 C 584.169 460.024, 596.934 460.230, 597.270 461.235 C 597.522 461.988, 597.648 461.893, 597.583 461 C 597.486 459.687, 589.782 459.468, 535.800 459.242 C 501.880 459.101, 473.917 459.326, 473.659 459.742 M 839 465 C 839 470.316, 839.237 471.101, 840.750 470.810 C 842.162 470.538, 842.500 469.417, 842.500 465 C 842.500 460.583, 842.162 459.462, 840.750 459.190 C 839.237 458.899, 839 459.684, 839 465 M 504.250 463.749 C 521.162 463.903, 548.837 463.903, 565.750 463.749 C 582.663 463.596, 568.825 463.470, 535 463.470 C 501.175 463.470, 487.337 463.596, 504.250 463.749 M 839.667 475.667 C 839.300 476.033, 839 478.733, 839 481.667 C 839 486.333, 839.250 487, 841 487 C 842.778 487, 843 486.333, 843 481 C 843 476.667, 842.630 475, 841.667 475 C 840.933 475, 840.033 475.300, 839.667 475.667 M 258 490.500 L 258 504 275.389 504 L 292.777 504 293.471 500.305 C 294.419 495.250, 298.579 487.296, 300.933 486.036 C 301.997 485.466, 304.071 485, 305.541 485 C 307.575 485, 308.068 484.619, 307.603 483.407 C 307.267 482.531, 306.720 480.731, 306.387 479.407 L 305.783 477 281.892 477 L 258 477 258 490.500 M 424.652 503.750 C 424.396 504.163, 430.107 504.383, 437.343 504.240 C 461.987 503.753, 464.532 503.398, 444.809 503.199 C 433.979 503.089, 424.908 503.337, 424.652 503.750 M 510.825 503.750 C 535.204 503.899, 574.804 503.899, 598.825 503.750 C 622.846 503.600, 602.900 503.478, 554.500 503.479 C 506.100 503.479, 486.446 503.601, 510.825 503.750 M 427.671 506.662 C 427.302 507.031, 427 519.855, 427 535.159 L 427 562.985 490.750 563.243 L 554.500 563.500 554.761 604.675 C 555.006 643.253, 554.911 645.882, 553.261 646.367 C 551.874 646.775, 551.924 646.842, 553.500 646.679 C 555.452 646.479, 555.512 645.553, 556 607.987 L 556.500 569.500 560.333 563.771 C 565.264 556.401, 577.932 544.575, 584.413 541.291 C 590.926 537.990, 601.266 537.169, 628.406 537.795 L 648.749 538.265 648.613 522.382 L 648.476 506.500 538.409 506.246 C 477.872 506.106, 428.040 506.293, 427.671 506.662 M 651.360 522 C 651.360 527.225, 651.529 529.362, 651.735 526.750 C 651.941 524.138, 651.941 519.862, 651.735 517.250 C 651.529 514.638, 651.360 516.775, 651.360 522 M 451 529 C 451 531.001, 451.427 531.016, 503.750 530.759 C 549.857 530.533, 556.500 530.311, 556.500 529 C 556.500 527.689, 549.857 527.467, 503.750 527.241 C 451.427 526.984, 451 526.999, 451 529 M 807.057 576.965 C 805.366 578.010, 806.412 581, 808.469 581 C 809.318 581, 810 580.135, 810 579.059 C 810 576.677, 808.848 575.858, 807.057 576.965 M 799 581.378 C 799 582.135, 799.670 583.311, 800.488 583.990 C 801.691 584.988, 802.091 584.925, 802.577 583.661 C 802.907 582.800, 802.886 581.624, 802.530 581.048 C 801.587 579.523, 799 579.764, 799 581.378 M 813.380 581.452 C 813.074 582.251, 813.102 583.356, 813.443 583.908 C 814.410 585.472, 817 584.004, 817 581.893 C 817 579.675, 814.193 579.333, 813.380 581.452 M 402.221 592.277 C 398.799 595.729, 396 599.104, 396 599.777 C 396 600.678, 399.427 601, 409.035 601 C 424.171 601, 424.005 601.293, 414.294 591.750 L 408.442 586 402.221 592.277 M 796.404 588.390 C 796.036 589.349, 796.244 590.644, 796.867 591.267 C 797.711 592.111, 798.308 592.092, 799.207 591.193 C 800.150 590.250, 800.049 589.620, 798.744 588.315 C 797.183 586.755, 797.029 586.760, 796.404 588.390 M 816 589.573 C 816 592.856, 819.345 592.564, 819.820 589.240 C 820.062 587.539, 819.641 587, 818.070 587 C 816.513 587, 816 587.638, 816 589.573 M 813.915 596.602 C 812.132 598.751, 814.299 600.826, 816.458 599.035 C 818.381 597.439, 818.417 596.374, 816.573 595.666 C 815.788 595.365, 814.592 595.786, 813.915 596.602 M 799.175 597.669 C 799.599 599.870, 803.500 600.169, 803.500 598 C 803.500 597.175, 802.447 596.351, 801.161 596.169 C 799.347 595.912, 798.901 596.249, 799.175 597.669 M 806.195 603.741 C 806.425 607.313, 806.931 608.564, 808.250 608.814 C 809.730 609.095, 810 608.365, 810 604.073 C 810 599.622, 809.748 599, 807.945 599 C 806.118 599, 805.924 599.526, 806.195 603.741 M 440.446 601.087 C 439.147 603.190, 441.767 604.100, 448.102 603.744 L 454.500 603.385 447.750 603.193 C 438.247 602.921, 439.333 601.149, 449.250 600.744 L 457.500 600.407 449.309 600.204 C 444.274 600.078, 440.859 600.419, 440.446 601.087 M 466.470 601.048 C 465.099 603.267, 467.815 604.085, 475.595 603.795 C 481.824 603.563, 483.500 603.182, 483.500 602 C 483.500 600.813, 481.797 600.440, 475.333 600.211 C 470.063 600.024, 466.919 600.321, 466.470 601.048 M 492.470 601.048 C 491.099 603.267, 493.815 604.085, 501.595 603.795 C 507.824 603.563, 509.500 603.182, 509.500 602 C 509.500 600.813, 507.797 600.440, 501.333 600.211 C 496.063 600.024, 492.919 600.321, 492.470 601.048 M 522 600.617 C 527.871 601.363, 535.777 601.442, 535.348 600.750 C 535.092 600.337, 531.421 600.067, 527.191 600.150 C 522.961 600.232, 520.625 600.443, 522 600.617 M 467 602 C 467 602.583, 470.333 603, 475 603 C 479.667 603, 483 602.583, 483 602 C 483 601.417, 479.667 601, 475 601 C 470.333 601, 467 601.417, 467 602 M 493 602 C 493 602.583, 496.333 603, 501 603 C 505.667 603, 509 602.583, 509 602 C 509 601.417, 505.667 601, 501 601 C 496.333 601, 493 601.417, 493 602 M 406.250 602.746 L 396 603.070 396 620.479 C 396 637.094, 396.103 638.007, 398.250 640.495 C 401.211 643.925, 409.680 644.996, 415.293 642.651 C 421.127 640.213, 422 637.009, 422 618.032 L 422 602 419.250 602.211 C 417.738 602.327, 411.887 602.568, 406.250 602.746 M 424.382 613.500 C 424.384 620.100, 424.546 622.670, 424.741 619.211 C 424.937 615.752, 424.936 610.352, 424.738 607.211 C 424.540 604.070, 424.380 606.900, 424.382 613.500 M 806.667 612.667 C 805.409 613.925, 806 617, 807.500 617 C 808.433 617, 809 616.056, 809 614.500 C 809 612.072, 808.026 611.307, 806.667 612.667 M 806.169 623.161 C 806.351 624.447, 807.175 625.500, 808 625.500 C 810.169 625.500, 809.870 621.599, 807.669 621.175 C 806.249 620.901, 805.912 621.347, 806.169 623.161 M 734.701 627.632 C 734.316 628.018, 734 631.183, 734 634.667 L 734 641 728.559 641 C 725.566 641, 722.828 641.470, 722.473 642.044 C 721.160 644.169, 724.217 646, 729.077 646 L 733.909 646 734.204 652.750 C 734.466 658.735, 734.727 659.500, 736.500 659.500 C 738.273 659.500, 738.534 658.735, 738.796 652.750 L 739.091 646 744.577 646 C 748.684 646, 750.217 645.598, 750.677 644.399 C 751.541 642.148, 749.273 641.033, 743.796 641.015 L 739.091 641 738.796 634.260 C 738.571 629.128, 738.131 627.450, 736.951 627.226 C 736.099 627.064, 735.087 627.246, 734.701 627.632 M 440.321 630.500 C 440.509 632.325, 441.263 632.500, 448.930 632.500 C 454.939 632.500, 457.407 632.137, 457.592 631.225 C 457.734 630.524, 457.621 630.411, 457.342 630.975 C 457.059 631.545, 453.349 632, 448.990 632 C 442.383 632, 441.065 631.724, 440.631 630.250 C 440.230 628.890, 440.161 628.946, 440.321 630.500 M 482.548 630.250 C 483.144 631.815, 482.384 632.021, 475.357 632.199 L 467.500 632.397 474.903 632.746 C 482.620 633.109, 485.477 632.069, 483.141 629.750 C 482.131 628.748, 482.014 628.847, 482.548 630.250 M 535 630.409 C 535 631.947, 534.069 632.114, 527.092 631.826 C 522.743 631.647, 519.394 631.837, 519.651 632.250 C 519.908 632.663, 523.481 633, 527.590 633 C 533.403 633, 535.194 632.657, 535.655 631.457 C 535.981 630.608, 535.966 629.633, 535.624 629.290 C 535.281 628.947, 535 629.451, 535 630.409 M 806.667 629.667 C 805.358 630.976, 805.986 635, 807.500 635 C 808.500 635, 809 634, 809 632 C 809 629.133, 808.100 628.233, 806.667 629.667 M 492.655 632.250 C 492.909 632.663, 496.665 633, 501 633 C 505.335 633, 509.091 632.663, 509.345 632.250 C 509.600 631.837, 505.845 631.500, 501 631.500 C 496.155 631.500, 492.400 631.837, 492.655 632.250 M 805.462 638.062 C 805.101 638.646, 803.719 639.537, 802.391 640.042 C 801.062 640.547, 799.451 642.111, 798.810 643.517 C 797.851 645.622, 797.935 646.364, 799.286 647.714 C 800.807 649.235, 800.971 649.214, 801.535 647.428 C 802.746 643.596, 803.720 642.570, 806.941 641.736 C 810.648 640.775, 814 642.873, 814 646.155 C 814 648.109, 816.453 648.694, 817.506 646.991 C 818.709 645.043, 816.804 641.901, 812.941 639.462 C 808.729 636.804, 806.498 636.386, 805.462 638.062 M 404.768 646.725 C 406.565 646.947, 409.265 646.943, 410.768 646.715 C 412.271 646.486, 410.800 646.304, 407.500 646.310 C 404.200 646.315, 402.971 646.502, 404.768 646.725 M 806.620 659.548 C 805.837 661.589, 806.658 663, 808.629 663 C 809.610 663, 810.027 662.240, 809.820 660.828 C 809.423 658.136, 807.463 657.351, 806.620 659.548 M 258 722.186 L 258 765.372 271.524 778.686 L 285.047 792 309.524 792 L 334 792 334 735.500 L 334 679 296 679 L 258 679 258 722.186 M 431.776 679.733 C 434.128 679.945, 437.728 679.942, 439.776 679.727 C 441.824 679.512, 439.900 679.339, 435.500 679.343 C 431.100 679.346, 429.424 679.522, 431.776 679.733 M 270.305 685.647 C 269.916 686.661, 270.155 687.552, 270.880 687.793 C 271.562 688.021, 273.296 689.297, 274.733 690.629 C 276.171 691.961, 277.803 692.899, 278.361 692.713 C 280.211 692.096, 280.194 690.011, 278.333 689.326 C 277.325 688.955, 276.143 688.060, 275.707 687.338 C 275.271 686.615, 274.027 685.550, 272.942 684.969 C 271.371 684.128, 270.835 684.266, 270.305 685.647 M 421.275 685.736 C 423.930 685.945, 425.790 686.531, 425.466 687.056 C 425.141 687.581, 426.352 687.964, 428.191 687.919 L 431.500 687.838 428.500 686.464 C 426.850 685.708, 423.475 685.151, 421 685.225 L 416.500 685.360 421.275 685.736 M 269.527 699.947 C 267.139 704.659, 267.231 706.711, 269.759 705.149 C 270.957 704.408, 274 697.867, 274 696.032 C 274 693.507, 271.826 695.410, 269.527 699.947 M 291.549 702.922 C 291.235 703.428, 292.330 704.517, 293.981 705.340 C 297.484 707.088, 299.434 705.522, 296.462 703.348 C 294.318 701.781, 292.359 701.611, 291.549 702.922 M 263.556 709.909 C 263.247 710.409, 264.458 711.986, 266.247 713.414 C 271.580 717.671, 273 719.263, 273 720.984 C 273 723.693, 275.308 726.084, 276.934 725.059 C 278.126 724.307, 277.915 723.469, 275.684 720.099 C 274.208 717.868, 273 715.599, 273 715.057 C 273 714.070, 266.159 709, 264.827 709 C 264.437 709, 263.865 709.409, 263.556 709.909 M 398.571 716.571 C 396.766 718.377, 396.584 720.776, 397.975 724.435 L 398.950 727 414.416 727 C 423.894 727, 430.127 726.603, 430.515 725.976 C 431.879 723.769, 429.771 718.831, 426.655 716.931 C 422.389 714.330, 401.086 714.057, 398.571 716.571 M 819.500 715.724 C 818.400 715.994, 816.851 716.729, 816.058 717.358 C 814.903 718.273, 814.782 718.202, 815.449 717 C 816.030 715.953, 815.724 716.026, 814.434 717.243 C 812.990 718.604, 812.850 719.250, 813.793 720.193 C 814.736 721.136, 815 721.124, 815 720.141 C 815 719.449, 815.338 719.091, 815.750 719.346 C 816.163 719.601, 817.851 718.730, 819.500 717.410 C 821.150 716.090, 822.275 715.060, 822 715.121 C 821.725 715.182, 820.600 715.453, 819.500 715.724 M 390.429 732.428 C 390.094 733.763, 390.116 735.790, 390.478 736.932 L 391.137 739.008 520.210 738.754 C 639.599 738.519, 649.361 738.375, 650.337 736.828 C 651.087 735.638, 651.053 734.411, 650.217 732.578 L 649.043 730 520.040 730 L 391.038 730 390.429 732.428 M 277.861 741.514 C 276.968 743.997, 276.600 746.253, 277.042 746.526 C 278.208 747.247, 282 741.563, 282 739.096 C 282 735.410, 279.539 736.849, 277.861 741.514 M 545.563 742.897 C 544.440 744.714, 546.335 750.119, 548.766 752.031 C 551.154 753.909, 552.975 754, 588.180 754 L 625.091 754 627.545 751.545 C 629.228 749.862, 630 747.976, 630 745.545 L 630 742 588.059 742 C 564.377 742, 545.877 742.391, 545.563 742.897 M 263.479 745.034 C 262.298 746.946, 264.528 748.154, 268.618 747.818 C 271.261 747.602, 272.500 747.021, 272.500 746 C 272.500 744.149, 264.552 743.298, 263.479 745.034 M 275.550 751.920 C 275.038 752.747, 279.984 761.483, 284.370 767.500 C 285.693 769.314, 285.890 769.343, 286.499 767.807 C 286.940 766.696, 285.627 763.728, 282.682 759.176 C 277.931 751.830, 276.503 750.378, 275.550 751.920 M 290.975 776.565 C 289.777 779.716, 289.740 781, 290.845 781 C 292.485 781, 295.235 777.055, 294.653 775.537 C 293.762 773.216, 292.069 773.690, 290.975 776.565 M 386.826 792.750 C 412.855 792.898, 455.155 792.898, 480.826 792.750 C 506.497 792.601, 485.200 792.480, 433.500 792.480 C 381.800 792.480, 360.797 792.601, 386.826 792.750 M 561.750 792.750 C 580.587 792.902, 611.413 792.902, 630.250 792.750 C 649.087 792.597, 633.675 792.473, 596 792.473 C 558.325 792.473, 542.913 792.597, 561.750 792.750 M 675.250 792.728 C 677.313 792.944, 680.688 792.944, 682.750 792.728 C 684.813 792.513, 683.125 792.336, 679 792.336 C 674.875 792.336, 673.188 792.513, 675.250 792.728 M 148.872 799.250 C 150.175 800.911, 165.509 800.987, 449.372 800.752 L 748.500 800.503 449.600 800.250 C 212.524 800.049, 150.370 799.738, 149.100 798.748 C 147.682 797.642, 147.656 797.699, 148.872 799.250 M 869.302 800.746 C 874.693 800.926, 883.243 800.925, 888.302 800.744 C 893.361 800.563, 888.950 800.416, 878.500 800.417 C 868.050 800.418, 863.911 800.566, 869.302 800.746"
        stroke="none" fill-rule="evenodd" fill="#D3F1A7" />
</svg>
