<svg width="1024" height="1024" viewBox="0 0 1024 1024" fill="none" xmlns="http://www.w3.org/2000/svg">
<path fill-rule="evenodd" clip-rule="evenodd" d="M793.75 221.656C797.046 222.364 796.494 223.812 792.75 224.277C789.611 224.666 789.631 224.685 793.323 224.84C796.47 224.972 797.088 224.69 796.813 223.25C796.613 222.201 795.482 221.434 793.99 221.336C791.782 221.191 791.755 221.227 793.75 221.656ZM585.25 222.691C587.313 222.927 589 223.516 589 224C589 224.484 587.313 225.073 585.25 225.309L581.5 225.738L585.5 225.619C588.336 225.535 589.5 225.063 589.5 224C589.5 222.937 588.336 222.465 585.5 222.381L581.5 222.262L585.25 222.691ZM593.446 223.087C592.283 224.969 594.59 226.151 598.618 225.736L602.5 225.336L598.25 225.168C595.913 225.076 594 224.576 594 224.057C594 223.539 595.913 222.943 598.25 222.732L602.5 222.349L598.309 222.175C596.004 222.079 593.816 222.489 593.446 223.087ZM614.25 222.691C616.313 222.927 618 223.516 618 224C618 224.484 616.313 225.056 614.25 225.272L610.5 225.664L614.823 225.832C618.449 225.973 619.093 225.717 618.815 224.25C618.57 222.957 617.441 222.469 614.492 222.381L610.5 222.262L614.25 222.691ZM626.25 222.691C628.313 222.927 630 223.516 630 224C630 224.484 628.313 225.073 626.25 225.309L622.5 225.738L626.5 225.619C629.336 225.535 630.5 225.063 630.5 224C630.5 222.937 629.336 222.465 626.5 222.381L622.5 222.262L626.25 222.691ZM714.48 223.032C713.339 224.878 715.489 226.17 719.123 225.823C723.908 225.365 723.694 222.6 718.843 222.195C716.831 222.028 714.868 222.404 714.48 223.032ZM730.993 222.709C736.264 223.243 736.121 224.775 730.75 225.302L726.5 225.72L731 225.61C734.284 225.53 735.5 225.095 735.5 224C735.5 222.917 734.317 222.473 731.243 222.402L726.985 222.304L730.993 222.709ZM747.993 222.709C753.264 223.243 753.121 224.775 747.75 225.302L743.5 225.72L748 225.61C751.284 225.53 752.5 225.095 752.5 224C752.5 222.917 751.317 222.473 748.243 222.402L743.985 222.304L747.993 222.709ZM756.178 223.688C756.638 226.075 764.5 226.37 764.5 224C764.5 222.945 763.213 222.407 760.165 222.188C756.432 221.92 755.878 222.128 756.178 223.688ZM715 224C715 224.55 716.575 225 718.5 225C720.425 225 722 224.55 722 224C722 223.45 720.425 223 718.5 223C716.575 223 715 223.45 715 224ZM757 224C757 224.55 758.575 225 760.5 225C762.425 225 764 224.55 764 224C764 223.45 762.425 223 760.5 223C758.575 223 757 223.45 757 224ZM428.25 276.75C479.263 276.893 562.738 276.893 613.75 276.75C664.763 276.607 623.025 276.49 521 276.49C418.975 276.49 377.238 276.607 428.25 276.75ZM334.472 345C334.472 382.125 334.597 397.313 334.75 378.75C334.902 360.188 334.902 329.813 334.75 311.25C334.597 292.688 334.472 307.875 334.472 345ZM338.49 470.5C338.49 575.55 338.607 618.673 338.75 566.33C338.893 513.986 338.893 428.036 338.75 375.33C338.607 322.623 338.49 365.45 338.49 470.5ZM521.25 280.75L703 281.005V536.464V791.922L694.497 792.273L685.995 792.624L694.747 792.562L703.5 792.5L703.752 536.25L704.004 280L521.752 280.247L339.5 280.495L521.25 280.75ZM839.189 287.177L839.378 293.5L839.739 287.75C840.19 280.559 841.763 280.251 842.293 287.25L842.691 292.5L842.595 287.009C842.519 282.62 842.149 281.452 840.75 281.186C839.217 280.895 839.023 281.639 839.189 287.177ZM839.434 301.312C838.339 304.165 839.419 310.5 841 310.5C842.13 310.5 842.5 309.287 842.5 305.583C842.5 300.741 840.645 298.156 839.434 301.312ZM840 305.5C840 307.975 840.45 310 841 310C841.55 310 842 307.975 842 305.5C842 303.025 841.55 301 841 301C840.45 301 840 303.025 840 305.5ZM430.824 322.75C452.453 322.9 487.553 322.9 508.824 322.75C530.096 322.599 512.4 322.476 469.5 322.476C426.6 322.476 409.196 322.599 430.824 322.75ZM545.453 337.748L545.5 350.5L596 350.514L646.5 350.527L596.28 350.255L546.06 349.982L545.733 337.489L545.407 324.997L545.453 337.748ZM389.385 338C389.385 344.875 389.545 347.688 389.74 344.25C389.936 340.813 389.936 335.188 389.74 331.75C389.545 328.313 389.385 331.125 389.385 338ZM651.31 343.5C651.315 346.8 651.502 348.029 651.725 346.232C651.947 344.435 651.943 341.735 651.715 340.232C651.486 338.729 651.304 340.2 651.31 343.5ZM838.402 364C838.402 372.525 838.556 376.012 838.743 371.75C838.931 367.488 838.931 360.512 838.743 356.25C838.556 351.988 838.402 355.475 838.402 364ZM842.168 393.167C842.072 395.823 841.461 398.051 840.75 398.338C839.771 398.733 839.778 398.859 840.781 398.921C842.563 399.031 843.203 396.88 842.735 392.355C842.349 388.627 842.331 388.654 842.168 393.167ZM334.45 451C334.45 469.975 334.584 477.738 334.748 468.25C334.913 458.762 334.913 443.238 334.748 433.75C334.584 424.262 334.45 432.025 334.45 451ZM840.2 423.621C841.442 423.991 842.006 425.524 842.295 429.314L842.691 434.5L842.595 429.009C842.513 424.289 842.219 423.49 840.5 423.317C839.037 423.169 838.957 423.251 840.2 423.621ZM513.824 442.75C536.003 442.9 572.003 442.9 593.824 442.75C615.646 442.599 597.5 442.476 553.5 442.477C509.5 442.477 491.646 442.6 513.824 442.75ZM842.175 464.677C842.04 468.674 841.601 469.958 840.25 470.311C838.61 470.739 838.612 470.775 840.281 470.884C842.59 471.034 843.217 469.244 842.738 463.864L842.349 459.5L842.175 464.677ZM842.32 481C842.32 484.575 842.502 486.038 842.723 484.25C842.945 482.462 842.945 479.538 842.723 477.75C842.502 475.962 842.32 477.425 842.32 481ZM301.557 490.352C299.334 492.575 298.611 494.446 296.28 504L295.427 507.5L276.675 507.772L257.924 508.044L258.212 541.272L258.5 574.5L262.787 584.086C272.209 605.154 288.66 626.432 306.5 640.624C316.748 648.776 331.286 658 333.887 658C334.739 658 334.963 636.343 334.766 573.25L334.5 488.5L319.231 488.224C304.265 487.953 303.914 487.996 301.557 490.352ZM253.779 526.098C253.625 542.651 253.831 556.714 254.235 557.348C254.639 557.981 254.976 544.438 254.985 527.25C254.993 510.063 254.788 496 254.529 496C254.269 496 253.932 509.544 253.779 526.098ZM293.079 501.727C293.001 503.931 292.82 503.957 275.25 504.252L257.5 504.549L275.281 504.775C290.132 504.963 293.156 504.758 293.626 503.533C293.935 502.726 293.957 501.489 293.673 500.783C293.39 500.077 293.122 500.502 293.079 501.727ZM424.434 537.5C424.433 551.25 424.574 557.014 424.747 550.308C424.919 543.603 424.92 532.353 424.748 525.308C424.576 518.264 424.434 523.75 424.434 537.5ZM470.989 565.747L551.977 566.012L552.256 605.756L552.534 645.5L552.517 605.5L552.5 565.5L471.25 565.491L390 565.482L470.989 565.747ZM258.01 630.75L258 675H296.469H334.938L334.592 670.603C334.146 664.939 333.986 664.725 327.781 661.481C300.869 647.409 272.839 618.32 260.348 591.5L258.02 586.5L258.01 630.75ZM395.344 617L395.406 635.5L395.727 619.25L396.048 603L405.274 602.942C410.348 602.911 416.3 602.512 418.5 602.057C421.459 601.445 419.073 601.2 409.333 601.115C399.789 601.032 396.045 600.656 395.724 599.75C395.481 599.063 395.31 606.825 395.344 617ZM734.701 627.632C734.316 628.018 734 631.161 734 634.617V640.9L728.329 641.2C724.731 641.39 722.565 641.966 722.404 642.775C722.264 643.476 722.379 643.589 722.658 643.025C722.938 642.461 725.829 642 729.083 642H735V635C735 629.444 735.31 628 736.5 628C737.69 628 738 629.444 738 635V642L743.75 641.815L749.5 641.63L744.295 641.264L739.089 640.899L738.795 634.21C738.571 629.123 738.129 627.45 736.951 627.226C736.099 627.064 735.087 627.246 734.701 627.632ZM444.75 629.732C447.087 629.943 450.913 629.943 453.25 629.732C455.587 629.522 453.675 629.349 449 629.349C444.325 629.349 442.413 629.522 444.75 629.732ZM470.776 629.733C473.128 629.945 476.728 629.942 478.776 629.727C480.824 629.512 478.9 629.339 474.5 629.343C470.1 629.346 468.424 629.522 470.776 629.733ZM496 629.617C501.871 630.363 509.777 630.442 509.348 629.75C509.092 629.337 505.421 629.067 501.191 629.15C496.961 629.232 494.625 629.443 496 629.617ZM519.652 629.75C519.396 630.163 521.732 630.373 524.843 630.217C534.61 629.73 535.788 629.305 527.809 629.15C523.579 629.067 519.908 629.337 519.652 629.75ZM750 643.283C750 644.55 748.755 644.965 744.25 645.2L738.5 645.5L738.432 652L738.363 658.5L738.727 652.25L739.091 646H744.577C748.599 646 750.221 645.588 750.655 644.457C750.981 643.608 750.966 642.633 750.624 642.29C750.281 641.947 750 642.394 750 643.283ZM728.705 645.736L733.911 646.101L734.26 652.801L734.608 659.5L734.804 652.25L735 645L729.25 645.185L723.5 645.37L728.705 645.736ZM338.23 729.191C338.104 763.671 338.337 792.091 338.75 792.346C339.431 792.767 339.421 747.262 338.728 689C338.581 676.625 338.357 694.711 338.23 729.191ZM257.654 678.75C257.399 679.163 274.472 679.377 295.595 679.227L334 678.954V735.459V791.964L310.25 792.251L286.5 792.538L310.75 792.769L335 793V735.5V678H296.559C275.416 678 257.909 678.337 257.654 678.75ZM870.467 736C870.467 766.525 870.594 779.012 870.749 763.75C870.905 748.487 870.905 723.512 870.749 708.25C870.594 692.987 870.467 705.475 870.467 736ZM430.25 685.735C432.863 685.941 437.137 685.941 439.75 685.735C442.363 685.529 440.225 685.36 435 685.36C429.775 685.36 427.637 685.529 430.25 685.735ZM488.25 688.683L491.5 689.367L487.5 690.079L483.5 690.791L487.5 690.646C492.286 690.471 492.87 688.605 488.25 688.25L485 688L488.25 688.683ZM455.75 729.75C491.087 729.896 548.912 729.896 584.25 729.75C619.587 729.604 590.675 729.485 520 729.485C449.325 729.485 420.412 729.604 455.75 729.75ZM456.828 739.75C492.208 739.896 549.808 739.896 584.828 739.75C619.847 739.604 590.9 739.485 520.5 739.485C450.1 739.485 421.447 739.604 456.828 739.75ZM455.25 741.75C490.862 741.895 549.137 741.895 584.75 741.75C620.362 741.604 591.225 741.485 520 741.485C448.775 741.485 419.637 741.604 455.25 741.75ZM267.993 744.709C272.585 745.174 273.321 746.678 269.25 747.28C266.655 747.663 266.67 747.681 269.5 747.593C271.459 747.532 272.5 746.979 272.5 746C272.5 744.917 271.317 744.473 268.243 744.402L263.985 744.304L267.993 744.709ZM265.982 778.25C275.718 788.235 277 789.454 277 788.732C277 788.585 272.163 783.747 266.25 777.982L255.5 767.5L265.982 778.25ZM264 792L247.5 792.575L264.25 792.788C274.892 792.923 281 792.635 281 792C281 791.45 280.887 791.096 280.75 791.212C280.613 791.329 273.075 791.684 264 792ZM716.302 792.746C721.693 792.926 730.243 792.925 735.302 792.744C740.361 792.563 735.95 792.416 725.5 792.417C715.05 792.418 710.911 792.566 716.302 792.746ZM876.75 792.743C880.737 792.932 887.263 792.932 891.25 792.743C895.237 792.553 891.975 792.397 884 792.397C876.025 792.397 872.763 792.553 876.75 792.743Z" fill="#50771B"/>
<path fill-rule="evenodd" clip-rule="evenodd" d="M324 223.721C324 224.551 325.434 225 328.083 225C330.785 225 332.033 224.599 331.772 223.815C331.221 222.162 324 222.075 324 223.721ZM336 223.44C336 224.599 337.05 225 340.083 225C345.294 225 344.948 222.635 339.673 222.19C336.879 221.954 336 222.253 336 223.44ZM353 223.44C353 224.599 354.05 225 357.083 225C362.294 225 361.948 222.635 356.673 222.19C353.879 221.954 353 222.253 353 223.44ZM365 223.5C365 224.583 366.111 225 369 225C371.889 225 373 224.583 373 223.5C373 222.417 371.889 222 369 222C366.111 222 365 222.417 365 223.5ZM382 223.5C382 224.583 383.111 225 386 225C388.889 225 390 224.583 390 223.5C390 222.417 388.889 222 386 222C383.111 222 382 222.417 382 223.5ZM394 223.44C394 224.599 395.05 225 398.083 225C403.294 225 402.948 222.635 397.673 222.19C394.879 221.954 394 222.253 394 223.44ZM411 223.5C411 224.761 411.832 225.052 414.75 224.81C416.813 224.64 418.5 224.05 418.5 223.5C418.5 222.95 416.813 222.36 414.75 222.19C411.832 221.948 411 222.239 411 223.5ZM423 223.5C423 224.548 424.056 225 426.5 225C428.944 225 430 224.548 430 223.5C430 222.452 428.944 222 426.5 222C424.056 222 423 222.452 423 223.5ZM439.667 222.667C438.121 224.212 439.247 225 443 225C445.889 225 447 224.583 447 223.5C447 222.467 445.963 222 443.667 222C441.833 222 440.033 222.3 439.667 222.667ZM451 223.437C451 224.564 452 225 454.583 225C459.102 225 458.757 222.639 454.173 222.187C451.828 221.955 451 222.281 451 223.437ZM467.343 223.254C467.013 223.787 467.281 224.555 467.937 224.961C469.588 225.982 474.001 225.015 473.998 223.633C473.995 222.241 468.174 221.909 467.343 223.254ZM479 223.548C479 225.057 479.212 225.135 483.75 225.3C488.065 225.457 487.148 222.827 482.75 222.432C479.984 222.184 479 222.477 479 223.548ZM495.307 223.312C494.421 224.746 496.763 225.688 500.023 225.21C504.336 224.577 503.85 222.174 499.435 222.299C497.475 222.355 495.617 222.81 495.307 223.312ZM507 223.5C507 224.583 508.111 225 511 225C515.041 225 516.33 223.724 513.418 222.607C510.453 221.469 507 221.949 507 223.5ZM523.304 223.317C522.674 224.336 523.086 224.751 525 225.023C528.33 225.497 531 224.931 531 223.75C531 222.355 524.138 221.968 523.304 223.317ZM536 223.5C536 224.548 537.056 225 539.5 225C543.122 225 544.188 223.67 541.418 222.607C538.611 221.53 536 221.96 536 223.5ZM566.459 223.067C565.373 224.824 566.984 225.363 572.5 225.087C575.36 224.943 575.409 224.868 573.559 223.468C571.292 221.753 567.406 221.534 566.459 223.067ZM773.667 222.667C772.121 224.212 773.247 225 777 225C779.889 225 781 224.583 781 223.5C781 222.467 779.963 222 777.667 222C775.833 222 774.033 222.3 773.667 222.667ZM788 223.607C788 224.662 788.544 225.005 789.582 224.607C790.452 224.273 792.252 224 793.582 224C794.912 224 796 223.55 796 223C796 222.45 794.2 222 792 222C788.993 222 788 222.399 788 223.607ZM800.531 222.95C800.206 223.476 801.866 224.423 804.22 225.055C806.574 225.686 808.806 226.389 809.181 226.618C809.555 226.846 810.145 226.574 810.491 226.014C810.837 225.454 810.081 224.613 808.81 224.145C804.246 222.462 801.112 222.01 800.531 222.95ZM295.079 223.943C290.033 224.765 289.871 227 294.858 227C298.798 227 301.077 225.536 299.363 224.106C298.888 223.71 296.961 223.637 295.079 223.943ZM306 224.5C306 225.611 307.167 226 310.5 226C313.833 226 315 225.611 315 224.5C315 223.389 313.833 223 310.5 223C307.167 223 306 223.389 306 224.5ZM552 223.941C552 225.602 553.876 226.114 557.483 225.437C562.457 224.504 561.85 223 556.5 223C554.025 223 552 223.423 552 223.941ZM582 224C582 224.55 583.575 225 585.5 225C587.425 225 589 224.55 589 224C589 223.45 587.425 223 585.5 223C583.575 223 582 223.45 582 224ZM594 224C594 224.55 595.8 225 598 225C600.2 225 602 224.55 602 224C602 223.45 600.2 223 598 223C595.8 223 594 223.45 594 224ZM611 224C611 224.55 612.575 225 614.5 225C616.425 225 618 224.55 618 224C618 223.45 616.425 223 614.5 223C612.575 223 611 223.45 611 224ZM623 224C623 224.55 624.575 225 626.5 225C628.425 225 630 224.55 630 224C630 223.45 628.425 223 626.5 223C624.575 223 623 223.45 623 224ZM639 224C639 224.55 640.8 225 643 225C645.2 225 647 224.55 647 224C647 223.45 645.2 223 643 223C640.8 223 639 223.45 639 224ZM655 224C655 224.55 656.8 225 659 225C661.2 225 663 224.55 663 224C663 223.45 661.2 223 659 223C656.8 223 655 223.45 655 224ZM669 224C669 224.55 669.863 225 670.918 225C671.973 225 673.548 225.273 674.418 225.607C675.456 226.005 676 225.662 676 224.607C676 223.437 675.048 223 672.5 223C670.575 223 669 223.45 669 224ZM685 224C685 224.55 686.8 225 689 225C691.2 225 693 224.55 693 224C693 223.45 691.2 223 689 223C686.8 223 685 223.45 685 224ZM699 224.299C699 225.195 700.086 225.472 702.5 225.19C704.425 224.965 706 224.38 706 223.891C706 223.401 704.425 223 702.5 223C700.296 223 699 223.481 699 224.299ZM715 224C715 224.55 716.575 225 718.5 225C720.425 225 722 224.55 722 224C722 223.45 720.425 223 718.5 223C716.575 223 715 223.45 715 224ZM727 224C727 224.55 728.8 225 731 225C733.2 225 735 224.55 735 224C735 223.45 733.2 223 731 223C728.8 223 727 223.45 727 224ZM744 224C744 224.55 745.8 225 748 225C750.2 225 752 224.55 752 224C752 223.45 750.2 223 748 223C745.8 223 744 223.45 744 224ZM757 224C757 224.55 758.575 225 760.5 225C762.425 225 764 224.55 764 224C764 223.45 762.425 223 760.5 223C758.575 223 757 223.45 757 224ZM283.25 225.78C280.913 226.678 279 227.995 279 228.707C279 230.397 281.239 230.345 285.522 228.555C287.967 227.534 288.805 226.655 288.383 225.555C288.055 224.7 287.722 224.033 287.643 224.074C287.564 224.114 285.587 224.882 283.25 225.78ZM816.595 228.846C816.308 229.311 817.856 230.86 820.036 232.287C823.454 234.525 824 234.645 824 233.157C824 232.208 822.693 230.659 821.096 229.716C817.786 227.761 817.321 227.671 816.595 228.846ZM267.25 234.584C263.708 237.375 263.099 239 265.596 239C267.863 239 273 235.137 273 233.432C273 231.292 270.891 231.714 267.25 234.584ZM828.603 238.833C828.32 239.291 829.24 241.36 830.647 243.431C834.069 248.467 836.154 246.749 832.835 241.628C830.459 237.962 829.523 237.344 828.603 238.833ZM256.25 246.498C253.781 250.311 253.508 251.578 254.962 252.477C256.217 253.252 261.389 245.439 260.536 244.058C259.476 242.342 258.63 242.824 256.25 246.498ZM836 253.062C836 255.986 839.396 264 840.634 264C842.18 264 841.772 261.065 839.418 255.25C838.17 252.168 836 250.779 836 253.062ZM249.114 260.269C247.096 265.75 246.926 268 248.532 268C249.923 268 253 262.586 253 260.139C253 258.007 249.909 258.11 249.114 260.269ZM839.425 272.702C839.836 276.561 842 276.881 842 273.083C842 271.075 841.501 270 840.568 270C839.608 270 839.231 270.89 839.425 272.702ZM246.454 277.327C245.496 281.144 246.312 284.444 248.308 284.824C249.88 285.124 250.076 284.548 249.808 280.413C249.473 275.234 247.447 273.371 246.454 277.327ZM335 344.5V412H267.607C207.076 412 200.152 412.161 199.607 413.582C199.273 414.452 199 500.169 199 604.064V792.965L174.25 793.233L149.5 793.5V796.5V799.5L523.313 799.751C787.144 799.929 897.714 799.688 899.124 798.934C900.385 798.259 901.007 797.061 900.811 795.682C900.509 793.562 900.065 793.492 885.25 793.224L870 792.948V736.323V679.699L859.75 680.294C829.421 682.058 801.595 694.337 780.861 715.108C762.687 733.313 751.993 754.005 746.548 781.5L744.37 792.5L725.685 792.772L707 793.044V630.454V467.864L709.97 469.978C711.603 471.142 713.216 472.54 713.554 473.087C714.659 474.876 721.914 479 723.955 479C725.638 479 725.856 479.469 725.35 482C724.974 483.878 725.161 485 725.849 485C726.454 485 727.647 483.65 728.5 482C729.353 480.35 730.827 478.991 731.776 478.98C735.223 478.941 750.516 472.921 756.927 469.079C769.549 461.517 787.939 445.328 786.518 443.03C786.056 442.282 783.83 443.751 780.154 447.23C765.554 461.049 752.26 469.65 738.009 474.497L730.743 476.968L731.274 473.734C731.565 471.955 736.743 457.225 742.78 441C755.186 407.656 758.442 398.109 757.669 397.336C756.532 396.199 755.087 398.227 753.446 403.262C752.508 406.143 746.907 421.55 741 437.5C735.093 453.45 729.491 468.863 728.55 471.75C727.341 475.46 726.32 477 725.07 477C722.947 477 716.753 472.897 711.11 467.753L707 464.005V396.253L706.999 328.5L764.25 329L821.5 329.5L826.216 332.272C828.81 333.797 832.125 336.609 833.583 338.52C838.187 344.557 838.909 348.223 838.956 365.823C838.996 380.82 839.142 382.119 840.75 381.805C842.335 381.496 842.5 379.857 842.5 364.457V347.451L839.233 340.819C836.599 335.471 834.981 333.554 830.873 330.918C821.774 325.08 820.835 325 761.282 325H707V301V277H521H335V344.5ZM338 470.412V660.825L346.25 663.98C361.614 669.856 376.594 673.85 393.578 676.599C408.616 679.033 413.228 679.344 435 679.387C453.018 679.423 462.94 678.97 472.5 677.677C532.419 669.572 575.243 650.291 622.456 610.164C629.546 604.138 631.347 603.043 632.544 604.036C633.345 604.701 634 605.817 634 606.517C634 608.23 607.947 629.45 595.5 637.875C550.916 668.051 501.88 683.2 443.897 684.709C407.909 685.645 373.545 680.548 348.147 670.504C343.273 668.577 338.992 667 338.635 667C338.277 667 338.101 695.237 338.242 729.75L338.5 792.5H521H703.5L703.752 536.25L704.004 280H521.002H338V470.412ZM840 287.5C840 290.525 840.45 293 841 293C841.55 293 842 290.525 842 287.5C842 284.475 841.55 282 841 282C840.45 282 840 284.475 840 287.5ZM247.191 296.647C247.361 299.316 247.95 301.387 248.5 301.25C250.016 300.871 249.738 292.746 248.191 292.23C247.206 291.902 246.958 292.995 247.191 296.647ZM840 305.5C840 307.975 840.45 310 841 310C841.55 310 842 307.975 842 305.5C842 303.025 841.55 301 841 301C840.45 301 840 303.025 840 305.5ZM247 312.917C247 316.848 247.352 318 248.555 318C249.783 318 250.046 317.018 249.805 313.328C249.37 306.656 247 306.309 247 312.917ZM839.446 319.435C838.709 323.363 839.72 326.05 841.11 323.857C842.28 322.01 842.23 316 841.045 316C840.52 316 839.801 317.546 839.446 319.435ZM390.48 325.25C390.173 326.488 390.052 333.125 390.211 340L390.5 352.5L518.809 352.754C606.117 352.926 647.738 352.676 649.059 351.969C650.825 351.023 651 349.778 651 338.165C651 329.57 650.608 325.008 649.8 324.2C648.879 323.279 618.649 323 519.819 323H391.038L390.48 325.25ZM247 330.083C247 336.691 249.37 336.344 249.805 329.672C250.046 325.982 249.783 325 248.555 325C247.352 325 247 326.152 247 330.083ZM545.22 337.741L545.5 350.5L595 350.777C622.225 350.929 645.526 350.805 646.781 350.5C649.02 349.957 649.056 349.725 648.781 337.723L648.5 325.5L596.72 325.241L544.94 324.982L545.22 337.741ZM247 346C247 349.778 247.367 351 248.5 351C249.633 351 250 349.778 250 346C250 342.222 249.633 341 248.5 341C247.367 341 247 342.222 247 346ZM247 362.917C247 366.848 247.352 368 248.555 368C249.783 368 250.046 367.018 249.805 363.328C249.37 356.656 247 356.309 247 362.917ZM247 380C247 383.778 247.367 385 248.5 385C249.633 385 250 383.778 250 380C250 376.222 249.633 375 248.5 375C247.367 375 247 376.222 247 380ZM839.667 388.667C839.3 389.033 839 391.283 839 393.667C839 396.852 839.397 398 840.5 398C841.633 398 842 396.778 842 393C842 388.353 841.293 387.04 839.667 388.667ZM247 395.417C247 400.692 247.307 402 248.548 402C249.81 402 250.04 400.861 249.798 395.829C249.613 392.009 249.024 389.502 248.25 389.246C247.335 388.944 247 390.597 247 395.417ZM839.702 406.75C838.943 409.815 839.647 415.382 840.845 415.782C841.627 416.042 842 414.362 842 410.583C842 405.279 840.631 402.996 839.702 406.75ZM137.25 412.71C136.012 412.946 135 413.783 135 414.57C135 415.637 136.397 416 140.5 416C144.722 416 146 415.652 146 414.5C146 413.675 145.137 413 144.082 413C143.027 413 141.564 412.838 140.832 412.64C140.099 412.443 138.488 412.474 137.25 412.71ZM153.75 412.786C149.265 413.352 150.295 416 155 416C157.752 416 159 415.566 159 414.607C159 412.898 157.364 412.331 153.75 412.786ZM170.25 412.718C166.261 413.465 167.567 416 171.941 416C175.28 416 178.053 414.62 176.85 413.558C175.995 412.803 172.306 412.333 170.25 412.718ZM184.75 412.721C183.22 412.95 182 413.769 182 414.566C182 415.62 183.325 416 187 416C190.778 416 192 415.633 192 414.5C192 413.675 191.587 413 191.082 413C190.577 413 189.564 412.845 188.832 412.655C188.099 412.465 186.262 412.495 184.75 412.721ZM414.5 415.031C400.324 420.493 393.058 435.367 397.351 450.136C399.755 458.405 403.797 463.282 411.311 466.981C431.343 476.843 452.572 463.117 452.268 440.5C452.121 429.608 446.668 420.989 436.804 416.06C429.47 412.395 422.209 412.06 414.5 415.031ZM203 604.5V793H242C263.45 793 281 792.848 281 792.662C281 792.477 275.15 786.536 268 779.462L255 766.599V672.845V579.092L251.971 569.796C247.424 555.846 244.135 538.088 242.936 521.017C241.798 504.819 242.219 502.391 245.778 504.628C247.211 505.529 247.606 507.963 248.134 519.136C248.739 531.951 252.137 553.716 254.041 556.967C254.582 557.891 254.951 541.987 254.97 516.95C254.992 486.001 255.306 475.094 256.2 474.2C257.069 473.331 264.239 473 282.174 473H306.949L308.354 475.75C309.127 477.262 310.074 479.962 310.459 481.75L311.159 485H323.079H335V450.5V416H269H203V604.5ZM757.559 417.775C756.639 418.695 758.094 420.013 761.691 421.515C766.028 423.327 767 423.369 767 421.742C767 420.452 758.467 416.866 757.559 417.775ZM474.45 420.081C474.078 420.682 474.188 421.588 474.693 422.093C475.241 422.641 507.923 422.909 555.556 422.756C625.837 422.531 635.5 422.319 635.5 421C635.5 419.681 625.81 419.469 555.313 419.244C498.127 419.062 474.932 419.302 474.45 420.081ZM839.195 428.672C839.63 435.344 842 435.691 842 429.083C842 425.152 841.648 424 840.445 424C839.217 424 838.954 424.982 839.195 428.672ZM474.379 440.195C474.061 440.711 473.985 441.318 474.211 441.544C474.437 441.77 511.044 441.986 555.561 442.024C621.222 442.08 636.5 441.848 636.5 440.796C636.5 439.746 621.154 439.477 555.73 439.379C506.388 439.305 474.733 439.622 474.379 440.195ZM839 446C839 449.778 839.367 451 840.5 451C841.633 451 842 449.778 842 446C842 442.222 841.633 441 840.5 441C839.367 441 839 442.222 839 446ZM839 464.5C839 468.722 839.348 470 840.5 470C841.652 470 842 468.722 842 464.5C842 460.278 841.652 459 840.5 459C839.348 459 839 460.278 839 464.5ZM473.694 460.639C473.342 460.991 473.294 461.666 473.586 462.139C473.879 462.613 501.766 463 535.559 463C589.507 463 597 462.817 597 461.5C597 460.183 589.519 460 535.667 460C501.933 460 474.046 460.288 473.694 460.639ZM840.25 475.662C838.324 476.44 838.557 487 840.5 487C841.667 487 842 485.667 842 481C842 477.7 841.888 475.036 841.75 475.079C841.612 475.122 840.938 475.385 840.25 475.662ZM279.75 476.749L258 477.039V491.043V505.046L275.734 504.773L293.468 504.5L294.084 500.706C294.422 498.619 295.734 494.702 296.999 492.001C299.277 487.138 302.361 485 307.097 485C308.681 485 308.767 484.611 307.82 481.75C306.684 478.318 304.328 475.846 302.559 476.229C301.976 476.356 291.712 476.589 279.75 476.749ZM301.557 490.352C299.334 492.575 298.611 494.446 296.28 504L295.427 507.5L276.675 507.772L257.924 508.044L258.212 541.272L258.5 574.5L262.787 584.086C272.209 605.154 288.66 626.432 306.5 640.624C316.748 648.776 331.286 658 333.887 658C334.739 658 334.963 636.343 334.766 573.25L334.5 488.5L319.231 488.224C304.265 487.953 303.914 487.996 301.557 490.352ZM424.457 507.379C423.949 510.088 423.439 510.666 421.911 510.266C420.86 509.992 420 510.238 420 510.814C420 511.39 421.012 512.005 422.25 512.18L424.5 512.5V537.5V562.5L408.5 562.759C399.7 562.902 391.825 563.352 391 563.759C390.175 564.167 426.175 564.725 471 565L552.5 565.5L552.761 605.802C552.932 632.04 553.368 645.891 554.011 645.493C555.088 644.827 555.454 567.347 554.393 564.582C553.848 563.162 547.277 563 490.393 563H427V534.5V506H538H649V521.5C649 531.416 649.369 537 650.025 537C650.694 537 650.954 531.357 650.775 520.75L650.5 504.5L537.796 504.246L425.092 503.991L424.457 507.379ZM806.446 578.087C805.416 579.755 807.733 581.667 809.113 580.287C810.267 579.133 809.545 577 808 577C807.515 577 806.816 577.489 806.446 578.087ZM799.446 581.087C798.588 582.476 800.49 584.433 801.869 583.581C803.018 582.871 802.282 580 800.952 580C800.493 580 799.816 580.489 799.446 581.087ZM813.446 581.087C812.416 582.755 814.733 584.667 816.113 583.287C817.267 582.133 816.545 580 815 580C814.515 580 813.816 580.489 813.446 581.087ZM631 583.098C617.245 586.631 597.522 592.269 595.75 593.175C593.735 594.206 593.398 597.629 595.25 598.257C595.938 598.49 599.65 597.658 603.5 596.409C613.399 593.197 639.454 586 641.183 586C641.979 586 643.386 587.586 644.31 589.524C645.869 592.794 654.924 623.484 656.453 630.681C657.384 635.062 659.32 636.538 661.403 634.454C662.292 633.566 662.847 632.538 662.638 632.169C662.429 631.801 659.665 622.275 656.496 611C650.075 588.155 648.077 583.36 644.394 581.96C641.098 580.707 639.919 580.807 631 583.098ZM400.09 590.623L392.937 597.245L393.044 616.682C393.167 639.017 393.912 642.23 399.51 644.569C404.049 646.465 413.377 646.389 417.522 644.423C423.125 641.764 423.839 638.823 424.188 616.979L424.5 597.5L417.191 590.75C413.172 587.038 409.289 584 408.563 584C407.837 584 404.025 586.98 400.09 590.623ZM401.366 592.7L395.232 599.357L395.069 617.098C394.843 641.683 396.001 644 408.518 644C420.864 644 422 641.764 422 617.469V598.747L415.25 592.399C411.538 588.907 408.275 586.048 408 586.046C407.725 586.044 404.74 589.038 401.366 592.7ZM258.01 630.75L258 675H296.469H334.938L334.592 670.603C334.146 664.939 333.986 664.725 327.781 661.481C300.869 647.409 272.839 618.32 260.348 591.5L258.02 586.5L258.01 630.75ZM816.667 587.667C815.755 588.578 815.821 592.004 816.75 591.985C818.603 591.947 820.236 590.059 819.677 588.601C819.033 586.923 817.795 586.539 816.667 587.667ZM796.177 589.667C796.663 592.176 799 592.52 799 590.083C799 588.855 798.354 588 797.427 588C796.495 588 795.985 588.68 796.177 589.667ZM799 596.878C799 597.36 799.635 598.282 800.411 598.926C801.978 600.227 803.581 598.749 802.5 597C801.738 595.768 799 595.672 799 596.878ZM807 604C807 606.75 807.45 609 808 609C808.55 609 809 606.75 809 604C809 601.25 808.55 599 808 599C807.45 599 807 601.25 807 604ZM441 602C441 602.583 444.333 603 449 603C453.667 603 457 602.583 457 602C457 601.417 453.667 601 449 601C444.333 601 441 601.417 441 602ZM467 602C467 602.583 470.333 603 475 603C479.667 603 483 602.583 483 602C483 601.417 479.667 601 475 601C470.333 601 467 601.417 467 602ZM493 602C493 602.583 496.333 603 501 603C505.667 603 509 602.583 509 602C509 601.417 505.667 601 501 601C496.333 601 493 601.417 493 602ZM520 602C520 602.578 523.167 603 527.5 603C531.833 603 535 602.578 535 602C535 601.422 531.833 601 527.5 601C523.167 601 520 601.422 520 602ZM735 635V642H729C724.333 642 723 642.333 723 643.5C723 644.667 724.333 645 729 645H735V652.5C735 658.4 735.311 660 736.456 660C737.57 660 737.981 658.296 738.206 652.75L738.5 645.5L744.25 645.2C748.469 644.98 750 644.514 750 643.45C750 642.344 748.575 642 744 642H738V635C738 629.444 737.69 628 736.5 628C735.31 628 735 629.444 735 635ZM807 632C807 633.65 807.45 635 808 635C808.55 635 809 633.65 809 632C809 630.35 808.55 629 808 629C807.45 629 807 630.35 807 632ZM441 631C441 631.577 444.147 632 448.441 632C452.534 632 456.16 631.55 456.5 631C456.892 630.365 454.177 630 449.059 630C444.353 630 441 630.416 441 631ZM467 631C467 631.583 470.333 632 475 632C479.667 632 483 631.583 483 631C483 630.417 479.667 630 475 630C470.333 630 467 630.417 467 631ZM493 631C493 631.583 496.333 632 501 632C505.667 632 509 631.583 509 631C509 630.417 505.667 630 501 630C496.333 630 493 630.417 493 631ZM520 631C520 631.578 523.167 632 527.5 632C531.833 632 535 631.578 535 631C535 630.422 531.833 630 527.5 630C523.167 630 520 630.422 520 631ZM806 638.5C805.315 639.325 804.168 640 803.45 640C801.566 640 798.013 644.871 798.663 646.564C799.355 648.368 801 648.446 801 646.674C801 644.484 805.447 641 808.243 641C811.121 641 813.524 642.926 814.506 646.02C815.246 648.35 817 647.713 817 645.115C817 643.3 814.209 640.455 810.264 638.25C807.472 636.69 807.504 636.688 806 638.5ZM257.979 678.75C257.573 693.56 258.277 764.672 258.84 765.679C260.239 768.178 279.343 787.231 283.4 790.172L287.3 793H311.15H335V735.5V678H296.5C275.325 678 257.991 678.337 257.979 678.75ZM270 685.75C270 686.777 276.641 692 277.947 692C279.622 692 279.213 691.22 275.852 688.009C272.895 685.183 270 684.066 270 685.75ZM390.738 688.692C387.566 689.519 390.018 691 394.559 691C397.84 691 399 690.608 399 689.5C399 688.01 394.893 687.608 390.738 688.692ZM408 688.893C408 689.384 408.591 690.013 409.313 690.29C411.239 691.029 416.069 689.92 415.429 688.886C414.713 687.726 408 687.733 408 688.893ZM424 689.5C424 691.11 425.182 691.326 428.75 690.37C432.191 689.448 431.427 688 427.5 688C425.056 688 424 688.452 424 689.5ZM470.338 689.136C468.699 689.781 468.735 689.867 470.668 689.93C471.861 689.968 473.548 690.273 474.418 690.607C475.44 690.999 476 690.667 476 689.669C476 688.064 473.627 687.841 470.338 689.136ZM536 689.5C536 691.088 537.989 691.377 541.835 690.348C543.578 689.881 543.831 689.508 542.835 688.877C540.553 687.43 536 687.846 536 689.5ZM552 689.499C552 690.594 552.945 690.931 555.498 690.749C559.223 690.484 560.013 689.603 557.418 688.607C554.612 687.53 552 687.96 552 689.499ZM567.496 689.007C566.701 690.292 569.51 691.402 571.563 690.614C573.567 689.845 572.464 688 570 688C568.965 688 567.838 688.453 567.496 689.007ZM583.235 688.715C580.071 689.313 581.48 691 585.142 691C587.032 691 588.018 690.555 587.771 689.813C587.298 688.393 586.263 688.143 583.235 688.715ZM598.527 688.956C598.168 689.538 598.529 690.266 599.331 690.574C601.577 691.436 608.5 690.625 608.5 689.5C608.5 688.134 599.344 687.635 598.527 688.956ZM453.5 690C456.289 691.198 460 691.198 460 690C460 689.45 458.087 689.032 455.75 689.07C452.458 689.125 451.951 689.334 453.5 690ZM270.13 699.67C267.856 704.35 267.989 706.515 270.392 703.94C272.176 702.03 274.083 696.169 273.116 695.571C272.695 695.311 271.351 697.156 270.13 699.67ZM293.441 704.532C296.136 706.57 298.699 706.547 297 704.5C296.315 703.675 294.798 703.014 293.628 703.032C291.542 703.063 291.538 703.092 293.441 704.532ZM264 710.206C264 710.981 265.94 712.982 268.311 714.654C271.137 716.646 272.951 718.838 273.576 721.018C274.101 722.847 275.086 724.529 275.765 724.755C277.777 725.426 277.18 722.925 274.485 719.391C273.101 717.577 272.089 715.599 272.235 714.995C272.381 714.392 270.587 712.75 268.25 711.347C265.134 709.478 264 709.173 264 710.206ZM816.976 715.016C812.404 718.042 811.285 720.239 814.044 720.77C816.314 721.207 823.763 714.44 822.476 713.111C821.762 712.372 820.101 712.947 816.976 715.016ZM389.972 729.028C387.389 731.611 387.008 737.052 389.22 739.75C390.03 740.738 417.422 741 520.066 741H649.887L651.443 738.777C653.685 735.578 653.363 732.272 650.536 729.445L648.072 726.981L520.008 727.019C393.915 727.056 391.913 727.087 389.972 729.028ZM390.557 731.223C388.499 734.16 388.593 735.593 391 738C392.979 739.979 394.333 740 520.066 740C605.743 740 647.762 739.663 649.066 738.965C651.447 737.69 651.658 732.801 649.429 730.571C648.016 729.159 634.899 729 519.985 729H392.113L390.557 731.223ZM278.2 742.123C276.698 746.936 277.11 748.01 279.22 744.781C281.604 741.136 282.339 738 280.811 738C280.083 738 278.908 739.855 278.2 742.123ZM776.542 743.932C775.449 745.7 776.762 746.762 782.262 748.556C785.143 749.496 788.082 750.726 788.792 751.29C789.679 751.994 790.421 751.979 791.155 751.245C792.804 749.596 791.433 748.308 785.731 746.151C782.854 745.063 779.758 743.878 778.851 743.518C777.944 743.158 776.905 743.344 776.542 743.932ZM263 745.917C263 747.238 264.739 747.629 268.609 747.177C273.567 746.598 272.752 745 267.5 745C265.025 745 263 745.413 263 745.917ZM276.954 755.25C278.137 757.038 280.319 760.631 281.803 763.236C284.441 767.867 286 769.194 286 766.808C286 764.466 277.882 752 276.357 752C275.075 752 275.179 752.568 276.954 755.25ZM799 759.044C799 759.618 801.192 762.722 803.871 765.941C807.536 770.345 808.913 772.934 809.432 776.397C809.908 779.569 810.6 781 811.658 781C812.88 781 813.122 779.979 812.847 775.999C812.558 771.83 812.782 770.999 814.194 770.999C816.796 771 821.717 766.36 820.466 765.085C819.744 764.35 818.27 764.858 815.589 766.766L811.746 769.5L806.52 763.75C801.578 758.312 799 756.699 799 759.044ZM292.081 775.403C291.402 776.221 290.999 777.927 291.185 779.195C291.521 781.479 291.541 781.474 293.41 778.699C295.506 775.588 294.335 772.686 292.081 775.403Z" fill="#3A4727"/>
<path fill-rule="evenodd" clip-rule="evenodd" d="M591.386 192.713C589.656 192.932 587.063 194.368 585.551 195.947C582.997 198.613 582.796 199.495 582.275 210.325L581.721 221.863L585.61 222.181C590.851 222.611 591.021 225.373 585.834 225.805C582.979 226.043 582.094 225.721 581.834 224.349C581.176 220.877 582.135 265.607 582.823 270.5L583.527 275.5L645.014 276L706.5 276.5L707 300.5L707.5 324.5L764.5 325L821.5 325.5L827.182 328.29C834.177 331.725 838.154 336.123 840.897 343.456C842.721 348.331 843 351.256 843 365.538C843 380.994 842.885 382 841.117 382C838.433 382 838.032 379.496 837.992 362.5C837.951 345.209 836.991 341.915 830.216 335.806C822.723 329.051 822.206 329 761.318 329H707V396.379V463.757L712.588 468.531C718.799 473.837 725.028 477.388 726.123 476.246C726.516 475.836 729.757 467.4 733.324 457.5C748.623 415.044 754.853 398.047 755.494 397.009C755.987 396.211 756.543 396.206 757.488 396.99C758.923 398.181 756.272 406.422 743.377 440.864C734.659 464.149 730.829 475.163 731.29 475.624C731.498 475.831 734.555 475.065 738.084 473.921C751.456 469.587 767.474 459.26 778.966 447.563C781.972 444.503 784.972 442 785.633 442C788.679 442 787.074 444.91 780.703 450.943C765.543 465.297 752.442 473.457 737.221 478.027C731.265 479.815 729.666 480.745 728.428 483.139C726.737 486.409 724.577 485.992 725.24 482.524C725.586 480.716 725.01 480.044 722.261 479.05C720.387 478.372 716.418 475.834 713.441 473.409C710.464 470.984 707.797 469 707.514 469C707.231 469 707 541.675 707 630.5V792H726H745V789.065C745 780.512 751.332 759.299 757.634 746.74C766.446 729.18 782.016 711.058 796.916 701.022C816.331 687.944 842.709 679.528 862.151 680.208L870.5 680.5V736.152V791.803L883.899 791.946C891.269 792.025 898.131 792.535 899.149 793.08C900.948 794.043 901 785.763 901 496.67V199.27L898.955 196.669C897.829 195.239 895.242 193.606 893.205 193.04C889.69 192.064 599.022 191.749 591.386 192.713ZM790.25 221.689C789.013 221.936 788 222.783 788 223.57C788 224.602 789.274 225 792.573 225C796.389 225 797.091 224.71 796.813 223.25C796.469 221.446 794.179 220.902 790.25 221.689ZM593.5 223C592.354 224.854 594.095 226 598.059 226C601.333 226 602 225.662 602 224C602 222.338 601.333 222 598.059 222C595.891 222 593.84 222.45 593.5 223ZM611 223.94C611 225.683 611.627 226 615.073 226C618.412 226 619.087 225.685 618.815 224.25C618.583 223.027 617.357 222.407 614.742 222.19C611.53 221.923 611 222.171 611 223.94ZM623 224C623 225.839 623.498 226.08 626.75 225.81C629.279 225.601 630.5 225.011 630.5 224C630.5 222.989 629.279 222.399 626.75 222.19C623.498 221.92 623 222.161 623 224ZM639 224C639 225.667 639.667 226 643 226C646.333 226 647 225.667 647 224C647 222.333 646.333 222 643 222C639.667 222 639 222.333 639 224ZM655.185 223.75C655.417 224.973 656.643 225.593 659.258 225.81C662.47 226.077 663 225.829 663 224.06C663 222.317 662.373 222 658.927 222C655.588 222 654.913 222.315 655.185 223.75ZM669 224C669 225.839 669.498 226.08 672.75 225.81C675.279 225.601 676.5 225.011 676.5 224C676.5 222.989 675.279 222.399 672.75 222.19C669.498 221.92 669 222.161 669 224ZM685.714 222.619C683.769 224.564 685.196 226 689.073 226C692.412 226 693.087 225.685 692.815 224.25C692.474 222.451 687.114 221.22 685.714 222.619ZM698.667 222.667C696.781 224.552 698.229 226 702 226C705.333 226 706 225.667 706 224C706 222.4 705.333 222 702.667 222C700.833 222 699.033 222.3 698.667 222.667ZM714.48 223.032C713.339 224.878 715.489 226.17 719.123 225.823C723.908 225.365 723.694 222.6 718.843 222.195C716.831 222.028 714.868 222.404 714.48 223.032ZM727 224C727 225.87 727.493 226.079 731.25 225.807C734.224 225.592 735.5 225.05 735.5 224C735.5 222.95 734.224 222.408 731.25 222.193C727.493 221.921 727 222.13 727 224ZM744 224C744 225.87 744.493 226.079 748.25 225.807C751.224 225.592 752.5 225.05 752.5 224C752.5 222.95 751.224 222.408 748.25 222.193C744.493 221.921 744 222.13 744 224ZM756.178 223.688C756.638 226.075 764.5 226.37 764.5 224C764.5 222.945 763.213 222.407 760.165 222.188C756.432 221.92 755.878 222.128 756.178 223.688ZM772.676 223.402C771.894 225.441 772.86 226 777.167 226C780.333 226 781 225.652 781 224C781 222.342 780.333 222 777.107 222C774.69 222 773.01 222.532 772.676 223.402ZM800 223.293C800 224.004 802.031 225.129 804.514 225.793C810.294 227.338 811 227.312 811 225.547C811 224.72 809.385 223.645 807.25 223.053C802.23 221.659 800 221.732 800 223.293ZM816.569 228.889C815.975 229.85 822.181 235 823.933 235C825.919 235 825.015 232.157 822.365 230.073C819.56 227.866 817.465 227.438 816.569 228.889ZM828.365 238.021C827.516 238.881 827.876 240.158 829.792 243.085C831.202 245.238 832.95 247 833.678 247C835.873 247 835.17 243.627 832.25 240.148C830.185 237.687 829.217 237.158 828.365 238.021ZM836.203 251.874C834.56 252.89 838.609 265 840.592 265C842.43 265 842.373 262.45 840.406 256.679C838.651 251.528 837.989 250.771 836.203 251.874ZM839.688 269.646C838.384 270.95 838.994 275.784 840.538 276.376C842.319 277.06 843.303 275.136 842.829 271.901C842.489 269.584 840.894 268.439 839.688 269.646ZM839 287C839 292.316 839.237 293.101 840.75 292.81C842.162 292.538 842.5 291.417 842.5 287C842.5 282.583 842.162 281.462 840.75 281.19C839.237 280.899 839 281.684 839 287ZM839.434 301.312C838.339 304.165 839.419 310.5 841 310.5C842.13 310.5 842.5 309.287 842.5 305.583C842.5 300.741 840.645 298.156 839.434 301.312ZM838.657 319.726C837.52 326.735 841.246 326.758 842.533 319.75C843.14 316.447 842.986 316 841.242 316C839.731 316 839.118 316.882 838.657 319.726ZM348.75 321.746L339 322.072V338.053V354.034L364.214 353.767L389.427 353.5L389.125 340.21C388.883 329.54 389.127 326.455 390.366 324.564C391.815 322.352 391.775 322.174 389.704 321.618C387.542 321.038 368.029 321.099 348.75 321.746ZM569.75 322.749C582.538 322.907 603.463 322.907 616.25 322.749C629.038 322.591 618.575 322.461 593 322.461C567.425 322.461 556.963 322.591 569.75 322.749ZM597.218 325.745L647.937 326.018L648.268 337.511L648.6 349.003L648.55 337.252L648.5 325.5L597.5 325.486L546.5 325.473L597.218 325.745ZM835.345 328.543C835.019 329.392 835.014 330.347 835.333 330.667C836.342 331.676 839 330.128 839 328.531C839 326.535 836.112 326.545 835.345 328.543ZM321 372.091C301.426 373.222 280.122 378.231 258 386.903L250.5 389.844L250.202 395.922C249.945 401.182 249.642 402 247.952 402C246.276 402 246 401.293 246 397C246 394.25 245.833 392 245.628 392C245.424 392 241.036 394.397 235.878 397.327C225.286 403.343 217 408.99 217 410.193C217 410.637 213.202 411 208.559 411C203.916 411 199.909 411.337 199.654 411.75C199.399 412.163 229.523 412.381 266.595 412.236L334 411.972V392.045C334 381.085 333.663 371.963 333.25 371.773C332.837 371.582 327.325 371.726 321 372.091ZM839.195 393.166C839.42 397.105 839.892 398.5 841 398.5C842.133 398.5 842.5 397.279 842.5 393.514C842.5 389.502 842.147 388.459 840.695 388.18C839.108 387.874 838.927 388.476 839.195 393.166ZM839 410.427C839 415.214 839.265 416 840.879 416C842.495 416 842.74 415.267 842.629 410.763C842.527 406.633 842.13 405.455 840.75 405.19C839.252 404.902 839 405.657 839 410.427ZM198.208 419.326L198 425.152L187.365 436.483C157.378 468.432 137.643 508.788 129.894 554C127.894 565.67 127.578 570.956 127.564 593C127.55 612.95 127.93 620.677 129.307 628.5C137.54 675.267 156.07 713.327 186.451 745.871L198 758.243V775.121V792H174.122C152.571 792 150.111 792.171 148.872 793.75C147.661 795.295 147.685 795.356 149.08 794.268C150.207 793.39 157.517 792.96 174.58 792.768L198.5 792.5L198.772 612C199.016 450.485 198.87 400.731 198.208 419.326ZM203.247 604.277L203.5 792.5L219.5 792.541L235.5 792.581L219.75 792.265L204 791.949V777.545V763.141L214.384 770.959C225.149 779.064 235.253 785.348 244.266 789.544C249.088 791.789 250.699 791.981 264.744 791.99L279.987 792L268.417 780.792C262.054 774.627 256.422 768.789 255.903 767.819C255.33 766.749 254.965 729.341 254.974 672.636C254.987 592.538 254.778 578.714 253.514 575.687C251.419 570.673 245.369 546.878 243.959 538.103C243.305 534.034 242.709 524.809 242.635 517.603L242.5 504.5H245C247.21 504.5 247.528 504.964 247.739 508.5C248.613 523.113 250.463 539.738 252.024 547L253.851 555.5L254.105 527C254.48 484.788 254.723 475.257 255.456 474.071C255.899 473.354 264.678 473 282.005 473H307.893L310.08 479L312.268 485H323.109H333.949L334.225 450.487L334.5 415.973L268.747 416.014L202.995 416.055L203.247 604.277ZM405.973 418.52C404.094 419.906 402.145 421.819 401.641 422.77C401.137 423.722 402.474 422.926 404.613 421.003C406.751 419.079 408.928 417.167 409.45 416.753C411.892 414.818 408.996 416.289 405.973 418.52ZM757 418.348C757 420.071 764.395 423.446 766.446 422.659C769.113 421.636 768.176 420.532 763.116 418.735C757.242 416.649 757 416.633 757 418.348ZM635.657 421.451C635.134 422.813 625.929 423.018 554.784 423.25L474.5 423.512L554.628 423.756C625.395 423.971 634.903 423.822 636.02 422.476C636.716 421.638 637.051 420.718 636.766 420.433C636.481 420.147 635.982 420.605 635.657 421.451ZM839 428.427C839 433.381 839.228 434 841.052 434C842.899 434 843.074 433.476 842.802 428.759C842.569 424.709 842.103 423.443 840.75 423.186C839.253 422.901 839 423.659 839 428.427ZM840.141 440.913C838.354 442.017 839.016 451.5 840.88 451.5C841.821 451.5 842.391 449.859 842.673 446.336C843.096 441.058 842.382 439.528 840.141 440.913ZM473.659 459.742C473.401 460.159 501.013 460.381 535.019 460.235C584.169 460.024 596.934 460.23 597.27 461.235C597.522 461.988 597.648 461.893 597.583 461C597.486 459.687 589.782 459.468 535.8 459.242C501.88 459.101 473.917 459.326 473.659 459.742ZM839 465C839 470.316 839.237 471.101 840.75 470.81C842.162 470.538 842.5 469.417 842.5 465C842.5 460.583 842.162 459.462 840.75 459.19C839.237 458.899 839 459.684 839 465ZM504.25 463.749C521.162 463.903 548.837 463.903 565.75 463.749C582.663 463.596 568.825 463.47 535 463.47C501.175 463.47 487.337 463.596 504.25 463.749ZM839.667 475.667C839.3 476.033 839 478.733 839 481.667C839 486.333 839.25 487 841 487C842.778 487 843 486.333 843 481C843 476.667 842.63 475 841.667 475C840.933 475 840.033 475.3 839.667 475.667ZM258 490.5V504H275.389H292.777L293.471 500.305C294.419 495.25 298.579 487.296 300.933 486.036C301.997 485.466 304.071 485 305.541 485C307.575 485 308.068 484.619 307.603 483.407C307.267 482.531 306.72 480.731 306.387 479.407L305.783 477H281.892H258V490.5ZM424.652 503.75C424.396 504.163 430.107 504.383 437.343 504.24C461.987 503.753 464.532 503.398 444.809 503.199C433.979 503.089 424.908 503.337 424.652 503.75ZM510.825 503.75C535.204 503.899 574.804 503.899 598.825 503.75C622.846 503.6 602.9 503.478 554.5 503.479C506.1 503.479 486.446 503.601 510.825 503.75ZM427.671 506.662C427.302 507.031 427 519.855 427 535.159V562.985L490.75 563.243L554.5 563.5L554.761 604.675C555.006 643.253 554.911 645.882 553.261 646.367C551.874 646.775 551.924 646.842 553.5 646.679C555.452 646.479 555.512 645.553 556 607.987L556.5 569.5L560.333 563.771C565.264 556.401 577.932 544.575 584.413 541.291C590.926 537.99 601.266 537.169 628.406 537.795L648.749 538.265L648.613 522.382L648.476 506.5L538.409 506.246C477.872 506.106 428.04 506.293 427.671 506.662ZM651.36 522C651.36 527.225 651.529 529.362 651.735 526.75C651.941 524.138 651.941 519.862 651.735 517.25C651.529 514.638 651.36 516.775 651.36 522ZM451 529C451 531.001 451.427 531.016 503.75 530.759C549.857 530.533 556.5 530.311 556.5 529C556.5 527.689 549.857 527.467 503.75 527.241C451.427 526.984 451 526.999 451 529ZM807.057 576.965C805.366 578.01 806.412 581 808.469 581C809.318 581 810 580.135 810 579.059C810 576.677 808.848 575.858 807.057 576.965ZM799 581.378C799 582.135 799.67 583.311 800.488 583.99C801.691 584.988 802.091 584.925 802.577 583.661C802.907 582.8 802.886 581.624 802.53 581.048C801.587 579.523 799 579.764 799 581.378ZM813.38 581.452C813.074 582.251 813.102 583.356 813.443 583.908C814.41 585.472 817 584.004 817 581.893C817 579.675 814.193 579.333 813.38 581.452ZM402.221 592.277C398.799 595.729 396 599.104 396 599.777C396 600.678 399.427 601 409.035 601C424.171 601 424.005 601.293 414.294 591.75L408.442 586L402.221 592.277ZM796.404 588.39C796.036 589.349 796.244 590.644 796.867 591.267C797.711 592.111 798.308 592.092 799.207 591.193C800.15 590.25 800.049 589.62 798.744 588.315C797.183 586.755 797.029 586.76 796.404 588.39ZM816 589.573C816 592.856 819.345 592.564 819.82 589.24C820.062 587.539 819.641 587 818.07 587C816.513 587 816 587.638 816 589.573ZM813.915 596.602C812.132 598.751 814.299 600.826 816.458 599.035C818.381 597.439 818.417 596.374 816.573 595.666C815.788 595.365 814.592 595.786 813.915 596.602ZM799.175 597.669C799.599 599.87 803.5 600.169 803.5 598C803.5 597.175 802.447 596.351 801.161 596.169C799.347 595.912 798.901 596.249 799.175 597.669ZM806.195 603.741C806.425 607.313 806.931 608.564 808.25 608.814C809.73 609.095 810 608.365 810 604.073C810 599.622 809.748 599 807.945 599C806.118 599 805.924 599.526 806.195 603.741ZM440.446 601.087C439.147 603.19 441.767 604.1 448.102 603.744L454.5 603.385L447.75 603.193C438.247 602.921 439.333 601.149 449.25 600.744L457.5 600.407L449.309 600.204C444.274 600.078 440.859 600.419 440.446 601.087ZM466.47 601.048C465.099 603.267 467.815 604.085 475.595 603.795C481.824 603.563 483.5 603.182 483.5 602C483.5 600.813 481.797 600.44 475.333 600.211C470.063 600.024 466.919 600.321 466.47 601.048ZM492.47 601.048C491.099 603.267 493.815 604.085 501.595 603.795C507.824 603.563 509.5 603.182 509.5 602C509.5 600.813 507.797 600.44 501.333 600.211C496.063 600.024 492.919 600.321 492.47 601.048ZM522 600.617C527.871 601.363 535.777 601.442 535.348 600.75C535.092 600.337 531.421 600.067 527.191 600.15C522.961 600.232 520.625 600.443 522 600.617ZM467 602C467 602.583 470.333 603 475 603C479.667 603 483 602.583 483 602C483 601.417 479.667 601 475 601C470.333 601 467 601.417 467 602ZM493 602C493 602.583 496.333 603 501 603C505.667 603 509 602.583 509 602C509 601.417 505.667 601 501 601C496.333 601 493 601.417 493 602ZM406.25 602.746L396 603.07V620.479C396 637.094 396.103 638.007 398.25 640.495C401.211 643.925 409.68 644.996 415.293 642.651C421.127 640.213 422 637.009 422 618.032V602L419.25 602.211C417.738 602.327 411.887 602.568 406.25 602.746ZM424.382 613.5C424.384 620.1 424.546 622.67 424.741 619.211C424.937 615.752 424.936 610.352 424.738 607.211C424.54 604.07 424.38 606.9 424.382 613.5ZM806.667 612.667C805.409 613.925 806 617 807.5 617C808.433 617 809 616.056 809 614.5C809 612.072 808.026 611.307 806.667 612.667ZM806.169 623.161C806.351 624.447 807.175 625.5 808 625.5C810.169 625.5 809.87 621.599 807.669 621.175C806.249 620.901 805.912 621.347 806.169 623.161ZM734.701 627.632C734.316 628.018 734 631.183 734 634.667V641H728.559C725.566 641 722.828 641.47 722.473 642.044C721.16 644.169 724.217 646 729.077 646H733.909L734.204 652.75C734.466 658.735 734.727 659.5 736.5 659.5C738.273 659.5 738.534 658.735 738.796 652.75L739.091 646H744.577C748.684 646 750.217 645.598 750.677 644.399C751.541 642.148 749.273 641.033 743.796 641.015L739.091 641L738.796 634.26C738.571 629.128 738.131 627.45 736.951 627.226C736.099 627.064 735.087 627.246 734.701 627.632ZM440.321 630.5C440.509 632.325 441.263 632.5 448.93 632.5C454.939 632.5 457.407 632.137 457.592 631.225C457.734 630.524 457.621 630.411 457.342 630.975C457.059 631.545 453.349 632 448.99 632C442.383 632 441.065 631.724 440.631 630.25C440.23 628.89 440.161 628.946 440.321 630.5ZM482.548 630.25C483.144 631.815 482.384 632.021 475.357 632.199L467.5 632.397L474.903 632.746C482.62 633.109 485.477 632.069 483.141 629.75C482.131 628.748 482.014 628.847 482.548 630.25ZM535 630.409C535 631.947 534.069 632.114 527.092 631.826C522.743 631.647 519.394 631.837 519.651 632.25C519.908 632.663 523.481 633 527.59 633C533.403 633 535.194 632.657 535.655 631.457C535.981 630.608 535.966 629.633 535.624 629.29C535.281 628.947 535 629.451 535 630.409ZM806.667 629.667C805.358 630.976 805.986 635 807.5 635C808.5 635 809 634 809 632C809 629.133 808.1 628.233 806.667 629.667ZM492.655 632.25C492.909 632.663 496.665 633 501 633C505.335 633 509.091 632.663 509.345 632.25C509.6 631.837 505.845 631.5 501 631.5C496.155 631.5 492.4 631.837 492.655 632.25ZM805.462 638.062C805.101 638.646 803.719 639.537 802.391 640.042C801.062 640.547 799.451 642.111 798.81 643.517C797.851 645.622 797.935 646.364 799.286 647.714C800.807 649.235 800.971 649.214 801.535 647.428C802.746 643.596 803.72 642.57 806.941 641.736C810.648 640.775 814 642.873 814 646.155C814 648.109 816.453 648.694 817.506 646.991C818.709 645.043 816.804 641.901 812.941 639.462C808.729 636.804 806.498 636.386 805.462 638.062ZM404.768 646.725C406.565 646.947 409.265 646.943 410.768 646.715C412.271 646.486 410.8 646.304 407.5 646.31C404.2 646.315 402.971 646.502 404.768 646.725ZM806.62 659.548C805.837 661.589 806.658 663 808.629 663C809.61 663 810.027 662.24 809.82 660.828C809.423 658.136 807.463 657.351 806.62 659.548ZM258 722.186V765.372L271.524 778.686L285.047 792H309.524H334V735.5V679H296H258V722.186ZM431.776 679.733C434.128 679.945 437.728 679.942 439.776 679.727C441.824 679.512 439.9 679.339 435.5 679.343C431.1 679.346 429.424 679.522 431.776 679.733ZM270.305 685.647C269.916 686.661 270.155 687.552 270.88 687.793C271.562 688.021 273.296 689.297 274.733 690.629C276.171 691.961 277.803 692.899 278.361 692.713C280.211 692.096 280.194 690.011 278.333 689.326C277.325 688.955 276.143 688.06 275.707 687.338C275.271 686.615 274.027 685.55 272.942 684.969C271.371 684.128 270.835 684.266 270.305 685.647ZM421.275 685.736C423.93 685.945 425.79 686.531 425.466 687.056C425.141 687.581 426.352 687.964 428.191 687.919L431.5 687.838L428.5 686.464C426.85 685.708 423.475 685.151 421 685.225L416.5 685.36L421.275 685.736ZM269.527 699.947C267.139 704.659 267.231 706.711 269.759 705.149C270.957 704.408 274 697.867 274 696.032C274 693.507 271.826 695.41 269.527 699.947ZM291.549 702.922C291.235 703.428 292.33 704.517 293.981 705.34C297.484 707.088 299.434 705.522 296.462 703.348C294.318 701.781 292.359 701.611 291.549 702.922ZM263.556 709.909C263.247 710.409 264.458 711.986 266.247 713.414C271.58 717.671 273 719.263 273 720.984C273 723.693 275.308 726.084 276.934 725.059C278.126 724.307 277.915 723.469 275.684 720.099C274.208 717.868 273 715.599 273 715.057C273 714.07 266.159 709 264.827 709C264.437 709 263.865 709.409 263.556 709.909ZM398.571 716.571C396.766 718.377 396.584 720.776 397.975 724.435L398.95 727H414.416C423.894 727 430.127 726.603 430.515 725.976C431.879 723.769 429.771 718.831 426.655 716.931C422.389 714.33 401.086 714.057 398.571 716.571ZM819.5 715.724C818.4 715.994 816.851 716.729 816.058 717.358C814.903 718.273 814.782 718.202 815.449 717C816.03 715.953 815.724 716.026 814.434 717.243C812.99 718.604 812.85 719.25 813.793 720.193C814.736 721.136 815 721.124 815 720.141C815 719.449 815.338 719.091 815.75 719.346C816.163 719.601 817.851 718.73 819.5 717.41C821.15 716.09 822.275 715.06 822 715.121C821.725 715.182 820.6 715.453 819.5 715.724ZM390.429 732.428C390.094 733.763 390.116 735.79 390.478 736.932L391.137 739.008L520.21 738.754C639.599 738.519 649.361 738.375 650.337 736.828C651.087 735.638 651.053 734.411 650.217 732.578L649.043 730H520.04H391.038L390.429 732.428ZM277.861 741.514C276.968 743.997 276.6 746.253 277.042 746.526C278.208 747.247 282 741.563 282 739.096C282 735.41 279.539 736.849 277.861 741.514ZM545.563 742.897C544.44 744.714 546.335 750.119 548.766 752.031C551.154 753.909 552.975 754 588.18 754H625.091L627.545 751.545C629.228 749.862 630 747.976 630 745.545V742H588.059C564.377 742 545.877 742.391 545.563 742.897ZM263.479 745.034C262.298 746.946 264.528 748.154 268.618 747.818C271.261 747.602 272.5 747.021 272.5 746C272.5 744.149 264.552 743.298 263.479 745.034ZM275.55 751.92C275.038 752.747 279.984 761.483 284.37 767.5C285.693 769.314 285.89 769.343 286.499 767.807C286.94 766.696 285.627 763.728 282.682 759.176C277.931 751.83 276.503 750.378 275.55 751.92ZM290.975 776.565C289.777 779.716 289.74 781 290.845 781C292.485 781 295.235 777.055 294.653 775.537C293.762 773.216 292.069 773.69 290.975 776.565ZM386.826 792.75C412.855 792.898 455.155 792.898 480.826 792.75C506.497 792.601 485.2 792.48 433.5 792.48C381.8 792.48 360.797 792.601 386.826 792.75ZM561.75 792.75C580.587 792.902 611.413 792.902 630.25 792.75C649.087 792.597 633.675 792.473 596 792.473C558.325 792.473 542.913 792.597 561.75 792.75ZM675.25 792.728C677.313 792.944 680.688 792.944 682.75 792.728C684.813 792.513 683.125 792.336 679 792.336C674.875 792.336 673.188 792.513 675.25 792.728ZM148.872 799.25C150.175 800.911 165.509 800.987 449.372 800.752L748.5 800.503L449.6 800.25C212.524 800.049 150.37 799.738 149.1 798.748C147.682 797.642 147.656 797.699 148.872 799.25ZM869.302 800.746C874.693 800.926 883.243 800.925 888.302 800.744C893.361 800.563 888.95 800.416 878.5 800.417C868.05 800.418 863.911 800.566 869.302 800.746Z" fill="#7F9C63"/>
</svg>
